<svg xmlns="http://www.w3.org/2000/svg" viewBox="0 0 1024 1024" version="1.1">
	<path d="M 5 439.500 L 5 464 10.250 464.022 C 17.108 464.051, 23.284 466.858, 24.861 470.664 C 25.752 472.815, 25.994 483.721, 25.785 512.187 C 25.517 548.552, 25.389 550.915, 23.591 552.900 C 21.598 555.102, 17.756 556.370, 9.750 557.470 L 5 558.123 5 582.561 L 5 607 50 607 L 95 607 95 582.500 L 95 558 90.750 557.920 C 84.021 557.792, 77.882 555.763, 75.825 552.987 C 74.112 550.674, 73.984 548.565, 74.231 526.607 L 74.500 502.742 107.849 554.882 L 141.198 607.023 180.349 606.762 L 219.500 606.500 220 538.403 C 220.549 463.585, 220.134 468.097, 226.718 465.345 C 228.488 464.605, 231.750 464, 233.968 464 L 238 464 238 439.500 L 238 415 195.482 415 L 152.964 415 153.232 439.250 L 153.500 463.500 159.833 464.105 C 164.882 464.588, 166.706 465.251, 168.833 467.376 L 171.500 470.042 171.800 492.771 C 172.060 512.429, 171.912 515.230, 170.708 513.500 C 169.942 512.400, 155.480 489.788, 138.571 463.250 L 107.826 415 56.413 415 L 5 415 5 439.500 M 721.232 439.250 L 721.500 463.500 726.680 464.132 C 733.471 464.961, 737.652 467.993, 739.022 473.082 C 739.718 475.668, 739.990 489.574, 739.797 512.781 C 739.515 546.690, 739.396 548.677, 737.451 552 C 735.199 555.846, 730.908 557.851, 724.732 557.944 L 720.964 558 721.232 582.250 L 721.500 606.500 776.250 606.759 L 831 607.017 831 582.638 L 831 558.258 824.998 557.579 C 820.825 557.107, 818.158 556.180, 816.248 554.537 L 813.500 552.174 813.230 483.587 L 812.959 415 766.962 415 L 720.964 415 721.232 439.250 M 324 457.625 C 296.087 461.175, 280.079 467.889, 265.941 481.973 C 251.268 496.590, 245.791 510.510, 245.666 533.500 C 245.395 583.458, 279.304 612.012, 338.881 611.996 C 388.161 611.982, 419.037 593.712, 430.134 558 C 432.183 551.404, 432.461 548.512, 432.439 534 C 432.416 518.796, 432.203 516.872, 429.732 509.500 C 418.481 475.930, 389.360 458.471, 343 457.503 C 334.475 457.325, 325.925 457.380, 324 457.625 M 440 487.031 C 440 505.381, 440.296 511.155, 441.250 511.453 C 441.938 511.668, 444.288 512.143, 446.473 512.509 C 453.909 513.754, 454.945 515.723, 473.058 563.032 L 489.700 606.500 523.981 606.500 L 558.261 606.500 565.804 586.657 C 572.651 568.646, 573.456 567.031, 574.527 569.157 C 575.175 570.446, 578.773 579.493, 582.522 589.262 L 589.338 607.025 624.817 606.762 L 660.296 606.500 676.476 564.500 C 685.375 541.400, 693.438 521.002, 694.394 519.171 C 696.203 515.709, 702.503 512.063, 706.750 512.022 L 709 512 709 487.500 L 709 463 675.500 463 L 642 463 642 487.500 L 642 512 644.277 512 C 647.525 512, 650.998 514.736, 651.012 517.307 C 651.023 519.160, 639.216 559.689, 638.308 560.917 C 638.139 561.146, 637.760 561.094, 637.467 560.800 C 636.792 560.125, 625 518.935, 625 517.251 C 625 515.126, 628.869 512, 631.500 512 L 634 512 634 487.500 L 634 463 589.500 463 L 545 463 545 487.500 L 545 512 547.277 512 C 550.763 512, 554 514.753, 554 517.718 C 554 520.913, 541.933 561, 540.971 561 C 540.015 561, 528.886 521.703, 528.780 517.950 C 528.674 514.231, 529.816 512.989, 534.157 512.102 L 537.500 511.419 537.768 487.210 L 538.036 463 489.018 463 L 440 463 440 487.031 M 836 487.376 L 836 511.752 841.541 512.212 C 848.029 512.750, 851.288 514.849, 854.410 520.500 C 855.625 522.700, 864.866 540.475, 874.946 560 C 885.025 579.525, 896.175 601.013, 899.722 607.750 L 906.172 620 900.061 620 C 894.626 620, 893.855 619.749, 893.086 617.727 C 892.611 616.477, 890.710 613.963, 888.861 612.139 C 875.453 598.913, 848.267 601.254, 837.850 616.531 L 835.500 619.977 424.500 620.239 C 15.535 620.499, 13.483 620.510, 10.106 622.500 C -3.381 630.448, -3.327 649.307, 10.202 655.856 L 14.631 658 425.732 658 L 836.832 658 840.124 662.156 C 857.913 684.618, 906.597 685.405, 930.618 663.619 L 936.737 658.070 974.193 657.785 L 1011.649 657.500 1015.702 654.817 C 1021.173 651.195, 1025 644.197, 1025 637.815 C 1025 634.781, 1024.615 633.120, 1024 633.500 C 1023.450 633.840, 1023 633.432, 1023 632.594 C 1023 630.493, 1017.364 624.260, 1013.602 622.199 C 1010.945 620.744, 1006.610 620.454, 983.388 620.180 L 956.277 619.859 979.209 570.680 C 991.822 543.631, 1003.390 519.925, 1004.915 518 C 1007.962 514.157, 1012.479 512.143, 1018.250 512.056 L 1022 512 1022 487.500 L 1022 463 985.500 463 L 949 463 949 487.500 L 949 512 951.351 512 C 955.256 512, 959.881 514.050, 960.520 516.064 C 961.073 517.806, 946.287 552.986, 945 552.993 C 943.991 552.998, 929 519.682, 929 517.435 C 929 514.354, 932.561 512, 937.223 512 L 941 512 941 487.500 L 941 463 888.500 463 L 836 463 836 487.376 M 329.984 497.868 C 322.888 501.672, 320.027 512.371, 320.055 535 C 320.080 556.027, 323.327 568.093, 329.847 571.391 C 336.904 574.960, 346.778 573.928, 351.364 569.141 C 356.260 564.032, 357.278 559.139, 357.741 538.500 C 358.497 504.834, 354.553 496, 338.767 496 C 335.504 496, 332.130 496.718, 329.984 497.868 M 0.310 639.500 C 0.315 642.800, 0.502 644.029, 0.725 642.232 C 0.947 640.435, 0.943 637.735, 0.715 636.232 C 0.486 634.729, 0.304 636.200, 0.310 639.500" stroke="none" fill="#000000" fill-rule="evenodd"/>
</svg>