<svg xmlns="http://www.w3.org/2000/svg" viewBox="0 0 1024 1024" version="1.1">
	<path d="M 168.741 2.426 C 163.702 4.228, 162.021 5.757, 159.863 10.500 C 158.213 14.128, 158.044 17.806, 158.044 50 C 158.044 100.919, 155.810 98, 194.781 98 L 220.825 98 221.248 152.750 C 221.633 202.556, 221.871 208.900, 223.885 222.998 C 233.224 288.349, 255.977 337.341, 295.732 377.694 C 301.104 383.147, 328 408.028, 355.500 432.983 C 414.120 486.180, 416.509 488.529, 420.742 497.127 C 425.955 507.716, 427.342 515.485, 425.554 524.064 C 423.955 531.732, 419.987 540.518, 415.385 546.580 C 413.798 548.669, 387.075 573.630, 356 602.048 C 297.166 655.851, 289.528 663.238, 279.013 676.500 C 253.771 708.335, 236.844 745.982, 227.980 790 C 222.443 817.501, 221.768 826.416, 221.269 878.704 L 220.809 926.908 194.475 927.204 C 165.474 927.530, 165.721 927.478, 160.562 934.384 C 158.582 937.034, 158.489 938.579, 158.212 973.322 C 157.881 1014.825, 158.059 1016.026, 165.280 1020.804 L 169.354 1023.500 511.427 1023.500 C 835.553 1023.500, 853.684 1023.408, 857 1021.745 C 858.925 1020.780, 861.512 1018.503, 862.750 1016.684 C 864.986 1013.397, 865 1013.139, 865 975.336 C 865 923.630, 867.600 927.004, 827.750 927.002 L 802 927 802 885.645 C 802 862.900, 801.536 838.488, 800.968 831.395 C 795.534 763.475, 774.488 710.138, 735.616 665.776 C 729.391 658.671, 641.059 576.778, 617.199 555.990 C 601.549 542.356, 594.018 522.834, 598.466 507.428 C 601.011 498.613, 605.785 490.346, 611.981 484.026 C 615.017 480.930, 640.225 457.668, 668 432.334 C 719.969 384.931, 733.962 371.328, 744.977 357.500 C 772.340 323.149, 790.793 278.666, 797.978 229.730 C 801.362 206.687, 801.979 193.683, 801.990 145.250 L 802 98 828.050 98 C 856.586 98, 857.422 97.853, 862.381 91.959 L 865 88.847 865 50.291 C 865 7.235, 865.100 7.887, 857.819 3.500 C 854.519 1.511, 852.540 1.499, 513.500 1.291 C 230.044 1.117, 171.866 1.309, 168.741 2.426 M 252.290 151.250 C 252.664 192.713, 253.131 207.156, 254.399 216.500 C 262.058 272.931, 279.789 314.003, 311.630 349.066 C 319.373 357.593, 328.961 366.538, 392.026 424.076 C 416.487 446.393, 438.386 467.100, 440.690 470.091 C 450.655 483.025, 457.323 501.786, 457.362 517 C 457.411 536.157, 447.645 558.489, 432.713 573.367 C 429.296 576.771, 402.025 601.819, 372.110 629.029 C 334.624 663.125, 314.818 681.873, 308.383 689.354 C 275.678 727.370, 257.887 773.330, 253.050 832.304 C 252.473 839.347, 252 863.534, 252 886.054 L 252 927 511.608 927 L 771.216 927 770.718 878.750 C 770.179 826.546, 769.384 816.649, 763.521 789.163 C 754.521 746.970, 734.172 708.630, 705.187 679.255 C 700.959 674.970, 676.800 652.630, 651.500 629.611 C 585.234 569.318, 586.399 570.418, 581.467 563.505 C 561.500 535.525, 560.860 502.174, 579.756 474.363 C 585.924 465.284, 593.941 457.671, 684 375.378 C 704.683 356.479, 715.255 345.347, 725.109 332.093 C 745.157 305.126, 758.549 273.215, 765.464 235.928 C 769.798 212.565, 770.219 205.763, 770.710 151.250 L 771.190 98 511.500 98 L 251.810 98 252.290 151.250 M 674.912 284.526 C 639.588 301.890, 625.648 305.518, 597.500 304.673 C 573.583 303.954, 561.538 301.560, 523.500 289.961 C 486.729 278.749, 472.825 276.510, 440.500 276.594 C 413.102 276.665, 397.198 278.805, 373.956 285.546 C 361.149 289.261, 340.018 297.483, 334.241 300.998 C 328.063 304.758, 325.230 313.333, 327.903 320.185 C 328.973 322.929, 353.421 347.171, 401.500 393.165 C 420.750 411.580, 444.289 434.100, 453.810 443.210 C 463.330 452.320, 472.253 461.287, 473.639 463.137 C 479.630 471.135, 484.122 482.459, 486.053 494.430 C 488.599 510.212, 496.828 518.204, 511.205 518.857 C 527.524 519.599, 534.038 513.558, 538.008 494 C 540.501 481.716, 545.565 470.255, 552.368 461.500 C 554.932 458.200, 564.626 448.300, 573.910 439.500 C 583.194 430.700, 600.184 414.500, 611.665 403.500 C 623.146 392.500, 644.478 372.198, 659.068 358.384 C 691.567 327.614, 698.295 320.065, 709.694 301.576 C 714.732 293.405, 715.479 286.937, 712.035 281.290 C 709.795 277.616, 703.430 274, 699.202 274 C 697.569 274, 687.055 278.556, 674.912 284.526 M 504.999 555.884 C 490.256 563.920, 495.482 585, 512.218 585 C 520.515 585, 527 578.287, 527 569.698 C 527 558.598, 514.463 550.726, 504.999 555.884 M 506.500 615.505 C 495.845 619.280, 492.959 632.805, 501.077 640.923 C 510.682 650.528, 526.985 643.626, 526.996 629.950 C 527.002 623.106, 523.105 617.661, 516.727 615.601 C 510.886 613.714, 511.537 613.720, 506.500 615.505 M 484 675.447 C 413.915 685.512, 353.933 728.871, 323.454 791.500 C 311.910 815.220, 305.072 839.533, 302.787 864.975 C 301.491 879.413, 302.039 883.704, 305.743 888.107 C 311.050 894.414, 296.541 894, 512.518 894 C 731.495 894, 713.160 894.594, 718.698 887.325 C 721.295 883.917, 721.485 883.047, 721.294 875.449 C 719.761 814.541, 686.964 752.249, 637 715.350 C 610.341 695.662, 584.597 684.333, 550.627 677.343 C 535.385 674.206, 499.707 673.191, 484 675.447" stroke="none" fill="#000000" fill-rule="evenodd"/>
</svg>