<svg xmlns="http://www.w3.org/2000/svg" width="1024" height="1024" viewBox="0 0 1024 1024" version="1.1"><path d="M 332.250 105.742 C 335.962 105.934, 342.038 105.934, 345.750 105.742 C 349.462 105.549, 346.425 105.392, 339 105.392 C 331.575 105.392, 328.538 105.549, 332.250 105.742 M 440.250 105.750 C 479.712 105.895, 544.287 105.895, 583.750 105.750 C 623.212 105.605, 590.925 105.487, 512 105.487 C 433.075 105.487, 400.787 105.605, 440.250 105.750 M 678.250 105.742 C 681.962 105.934, 688.038 105.934, 691.750 105.742 C 695.462 105.549, 692.425 105.392, 685 105.392 C 677.575 105.392, 674.538 105.549, 678.250 105.742 M 671.320 154 C 671.320 157.575, 671.502 159.037, 671.723 157.250 C 671.945 155.463, 671.945 152.537, 671.723 150.750 C 671.502 148.963, 671.320 150.425, 671.320 154 M 599.877 208.517 C 581.192 217.453, 572.974 219.430, 557.500 218.712 C 548.657 218.302, 542.475 217.350, 534 215.095 C 527.675 213.412, 516.627 210.481, 509.449 208.581 C 478.312 200.341, 452.530 201.696, 423.341 213.108 C 414.178 216.691, 412.673 217.617, 411.285 220.529 C 409.095 225.122, 410.578 228.308, 418.326 235.657 C 421.715 238.871, 431.244 248.025, 439.504 256 C 447.763 263.975, 462.676 278.281, 472.643 287.791 C 492.327 306.572, 495.902 311.455, 497.880 322.254 C 499.166 329.280, 500.188 331.286, 503.782 333.845 C 508.237 337.017, 513.117 337.484, 518.220 335.227 C 523.133 333.054, 525.307 329.582, 526.503 322 C 526.893 319.525, 528.796 314.461, 530.732 310.747 C 533.832 304.798, 537.654 300.757, 562.875 276.766 C 578.619 261.790, 596.121 245.047, 601.770 239.559 C 611.397 230.206, 620.794 218.301, 622.878 212.820 C 624.680 208.082, 620.071 201.997, 614.685 202.001 C 614.033 202.001, 607.370 204.933, 599.877 208.517 M 626.978 261.750 L 618.500 270.500 627.250 262.022 C 632.063 257.359, 636 253.422, 636 253.272 C 636 252.544, 634.852 253.623, 626.978 261.750 M 508.500 357.208 C 505.484 358.937, 504.067 361.192, 504.032 364.316 C 503.962 370.513, 509.416 374.313, 515.038 371.984 C 521.700 369.225, 521.860 360.649, 515.316 357.163 C 512.614 355.724, 511.069 355.734, 508.500 357.208 M 508.500 390.208 C 503.372 393.148, 502.400 399.491, 506.455 403.545 C 511.511 408.602, 520.037 404.974, 519.968 397.795 C 519.933 394.125, 518.577 391.900, 515.316 390.163 C 512.614 388.724, 511.069 388.734, 508.500 390.208 M 490.677 424 C 477.592 426.758, 471.621 428.846, 460.076 434.702 C 427.180 451.387, 404.310 482.477, 398.477 518.445 C 396.224 532.335, 396.470 537.153, 399.580 540.076 L 402.161 542.500 510.330 542.779 C 569.824 542.932, 619.524 542.808, 620.775 542.504 C 625.327 541.395, 627 538.502, 626.997 531.750 C 626.992 523.279, 624.460 509.402, 621.329 500.684 C 610.736 471.201, 591.085 448.456, 564.415 434.812 C 553.421 429.188, 546.160 426.682, 533.216 424.044 C 520.304 421.413, 503.039 421.395, 490.677 424 M 671.310 517.500 C 671.315 520.800, 671.502 522.029, 671.725 520.232 C 671.947 518.435, 671.943 515.735, 671.715 514.232 C 671.486 512.729, 671.304 514.200, 671.310 517.500 M 5.231 740.750 L 5.463 765.500 5.749 741.259 L 6.036 717.018 57.268 716.750 L 108.500 716.481 56.750 716.241 L 5 716 5.231 740.750 M 153.449 717.272 C 153.181 717.971, 153.091 728.884, 153.250 741.522 L 153.539 764.500 153.770 740.761 L 154 717.022 196.250 716.750 L 238.500 716.478 196.219 716.239 C 162.757 716.050, 153.835 716.265, 153.449 717.272 M 721.454 717.260 C 721.183 717.965, 721.092 729.107, 721.250 742.021 L 721.539 765.500 721.769 741.250 L 722 717 766.993 717 L 811.986 717 812.254 783.750 L 812.522 850.500 812.511 783.500 L 812.500 716.500 767.223 716.240 C 731.152 716.032, 721.845 716.240, 721.454 717.260 M 464.750 764.749 C 478.087 764.907, 499.913 764.907, 513.250 764.749 C 526.587 764.592, 515.675 764.463, 489 764.463 C 462.325 764.463, 451.413 764.592, 464.750 764.749 M 545.450 765.271 C 545.181 765.970, 545.092 777.107, 545.250 790.021 L 545.539 813.500 545.769 789.261 L 546 765.021 589.750 764.750 L 633.500 764.478 589.719 764.239 C 555.061 764.050, 545.836 764.265, 545.450 765.271 M 642.455 765.257 C 642.184 765.963, 642.092 777.107, 642.250 790.021 L 642.539 813.500 642.769 789.250 L 643 765 675.482 765 L 707.964 765 708.260 789.250 L 708.556 813.500 708.528 789 L 708.500 764.500 675.724 764.236 C 649.766 764.027, 642.845 764.240, 642.455 765.257 M 888.232 764.745 L 939.964 765.018 940.259 788.759 L 940.553 812.500 940.527 788.500 L 940.500 764.500 888.500 764.486 L 836.500 764.472 888.232 764.745 M 984.982 764.743 L 1020.964 765.025 1021.259 788.762 L 1021.553 812.500 1021.527 788.500 L 1021.500 764.500 985.250 764.481 L 949 764.462 984.982 764.743 M 26.453 812.500 C 26.453 832.850, 26.586 841.033, 26.749 830.685 C 26.912 820.336, 26.911 803.686, 26.748 793.685 C 26.585 783.683, 26.452 792.150, 26.453 812.500 M 172.420 798.500 C 172.419 809.500, 172.565 814.136, 172.745 808.803 C 172.924 803.470, 172.925 794.470, 172.746 788.803 C 172.568 783.136, 172.421 787.500, 172.420 798.500 M 73 826 C 73 839.383, 73.210 850.124, 73.466 849.867 C 74.145 849.189, 74.246 802.913, 73.570 802.237 C 73.257 801.923, 73 812.617, 73 826 M 319.349 836 C 319.349 840.675, 319.522 842.587, 319.732 840.250 C 319.943 837.913, 319.943 834.087, 319.732 831.750 C 319.522 829.413, 319.349 831.325, 319.349 836 M 5.231 883.750 L 5.463 908.500 5.749 884.317 C 6.035 860.195, 6.041 860.133, 8.268 859.703 C 10.160 859.338, 10.081 859.252, 7.750 859.136 L 5 859 5.231 883.750 M 90.232 859.727 L 93.965 860.119 94.251 884.309 L 94.537 908.500 94.769 883.750 L 95 859 90.750 859.168 L 86.500 859.336 90.232 859.727 M 721.450 860.271 C 721.181 860.970, 721.092 872.107, 721.250 885.021 L 721.539 908.500 721.769 884.310 L 722 860.121 725.750 859.728 L 729.500 859.336 725.719 859.168 C 723.448 859.067, 721.742 859.508, 721.450 860.271 M 334.287 913.740 C 337.469 913.939, 342.419 913.937, 345.287 913.736 C 348.154 913.535, 345.550 913.372, 339.500 913.374 C 333.450 913.376, 331.104 913.541, 334.287 913.740 M 894.099 923.184 C 895.475 925.756, 895.172 937.653, 893.636 941.329 C 892.068 945.082, 886.963 949.720, 883.423 950.609 C 879.126 951.687, 880.843 953, 886.550 953 C 889.602 953, 893.329 952.364, 894.831 951.587 C 898.826 949.521, 906.631 940.813, 909.169 935.590 L 911.370 931.059 909.131 926.280 L 906.892 921.500 900.045 921.500 C 893.935 921.500, 893.294 921.681, 894.099 923.184 M 13.500 922.850 C 6.245 925.209, 0.923 931.748, 0.209 939.180 C -0.402 945.535, 2.842 952.205, 8.298 955.816 L 12.354 958.500 425.036 959 C 837.539 959.500, 837.718 959.499, 836.438 957.500 C 831.918 950.444, 830.689 932.339, 834.246 925.209 L 835.847 922 425.673 922.100 C 200.078 922.155, 14.600 922.492, 13.500 922.850 M 953.063 927.694 C 947.567 941.266, 940.767 953.010, 934.242 960.202 C 930.463 964.366, 929.542 965.675, 932.097 963.250 L 936.576 959 972.972 959 C 1008.018 959, 1009.531 958.921, 1013.750 956.879 C 1020.247 953.734, 1023.511 948.251, 1023.459 940.569 C 1023.412 933.528, 1020.922 928.879, 1015.078 924.922 C 1011.533 922.523, 1011.239 922.497, 983.457 922.194 L 955.414 921.888 953.063 927.694 M 880.250 980.735 C 882.862 980.941, 887.138 980.941, 889.750 980.735 C 892.362 980.529, 890.225 980.360, 885 980.360 C 879.775 980.360, 877.638 980.529, 880.250 980.735" stroke="none" fill="#7a5fa6" fill-rule="evenodd"/><path d="M 324.270 52.703 C 323.043 52.940, 321.131 54.289, 320.020 55.702 C 318.141 58.091, 318 59.716, 318 79.024 C 318 106.209, 316.675 104.390, 336.782 104.820 L 351.746 105.140 352.280 136.320 C 352.968 176.444, 355.515 192.807, 364.508 214.865 C 374.439 239.223, 382.605 249.256, 421 284.267 C 461.209 320.933, 459.974 319.704, 462.784 325.842 C 466.184 333.265, 466.048 339.569, 462.334 346.834 C 459.866 351.661, 454.849 356.677, 428.468 380.696 C 411.436 396.203, 394.424 412.149, 390.664 416.131 C 376.396 431.243, 364.166 453.758, 358.621 475.123 C 354.278 491.853, 352.974 503.860, 352.314 533.160 L 351.692 560.819 337.258 561.160 C 322.862 561.499, 322.818 561.507, 320.412 564.306 C 318.029 567.078, 318 567.361, 318 588.056 C 318 607.466, 318.142 609.142, 319.944 610.944 C 321.014 612.014, 323.376 613.155, 325.194 613.480 C 327.012 613.805, 412.577 613.943, 515.338 613.786 L 702.177 613.500 704.088 611.139 C 705.835 608.983, 706 606.965, 706 587.823 C 706 575.603, 705.578 566.080, 704.988 564.978 C 703.451 562.107, 697.736 561.012, 684.250 561.006 L 672 561 671.979 544.750 C 671.916 494.751, 665.897 465.554, 650.107 438.650 C 641.580 424.120, 633.602 415.584, 598.321 383.242 C 560.208 348.304, 558.688 346.467, 558.787 335.457 C 558.877 325.372, 562.237 321.122, 590 295.962 C 632.921 257.066, 642.748 246.479, 652.359 228.779 C 661.019 212.830, 666.546 195.496, 669.507 175 C 670.411 168.747, 671.285 152.496, 671.669 134.820 L 672.314 105.139 687.248 104.820 C 707.332 104.390, 706 106.237, 706 78.823 C 706 66.603, 705.578 57.080, 704.988 55.978 C 704.432 54.938, 702.294 53.620, 700.238 53.049 C 696.606 52.040, 329.451 51.702, 324.270 52.703 M 369.258 138.250 C 369.719 174.614, 370.447 180.990, 376.190 198.955 C 381.636 215.993, 391.317 232.562, 403.204 245.189 C 406.667 248.868, 422.325 263.417, 438 277.521 C 470.743 306.982, 473.194 309.469, 477.089 317.180 C 481.442 325.798, 482.645 335.003, 480.613 344.138 C 477.732 357.088, 475.700 359.469, 438.452 393.543 C 403.249 425.746, 395.486 433.891, 387.664 446.831 C 373.640 470.030, 369.015 491.700, 369.006 534.250 L 369 561 512 561 L 655 561 654.980 536.250 C 654.950 496.997, 651.128 476.083, 639.921 453.829 C 631.779 437.660, 624.463 429.542, 588.500 396.770 C 550.381 362.034, 550.377 362.030, 546.819 354.427 C 540.779 341.520, 540.778 330.423, 546.817 317.631 C 550.542 309.739, 551.765 308.483, 588.062 275.232 C 604.871 259.833, 620.559 245.044, 622.925 242.367 C 634.165 229.649, 642.057 215.679, 647.425 199 C 653.342 180.614, 654.235 173.085, 654.745 137.250 L 655.205 105 512.021 105 L 368.836 105 369.258 138.250 M 6 741 L 6 765 10.750 765.076 C 17.116 765.178, 21.953 767.056, 24.445 770.394 C 26.436 773.060, 26.500 774.358, 26.500 811.999 C 26.500 849.953, 26.451 850.918, 24.393 853.675 C 22.062 856.798, 17.936 858.560, 10.750 859.501 L 6 860.123 6 884.061 L 6 908 50 908 L 94 908 94 884.199 L 94 860.398 86.452 859.311 C 73.317 857.419, 72.788 856.032, 73.200 824.569 L 73.500 801.638 107.500 854.816 L 141.500 907.994 180.223 907.997 L 218.946 908 219.223 840.019 L 219.500 772.038 222.527 769.011 C 224.935 766.604, 226.778 765.831, 231.527 765.238 L 237.500 764.493 237.768 740.746 L 238.036 717 196.018 717 L 154 717 154 741 L 154 765 158.351 765 C 164.752 765, 168.815 766.758, 170.740 770.358 C 172.127 772.955, 172.488 777.380, 172.820 795.877 C 173.061 809.314, 172.854 818.028, 172.303 817.687 C 171.799 817.375, 157.014 794.593, 139.448 767.060 L 107.511 717 56.756 717 L 6 717 6 741 M 722 741 L 722 765 725.532 765 C 730.519 765, 735.342 767.267, 737.851 770.791 C 739.960 773.753, 740 774.525, 740 812.256 C 740 850.643, 739.996 850.710, 737.715 854.102 C 735.294 857.703, 730.716 859.849, 725.250 859.944 L 722 860 722 884 L 722 908 776.500 908 L 831 908 831 884.140 L 831 860.280 825.423 859.704 C 822.355 859.388, 818.717 858.390, 817.339 857.486 C 811.965 853.966, 812 854.448, 812 783.032 L 812 717 767 717 L 722 717 722 741 M 323.500 759.666 C 306.899 761.695, 291.853 766.112, 281 772.142 C 276.291 774.759, 270.612 779.189, 265.739 784.045 C 259.290 790.472, 257.237 793.364, 253.600 801.140 C 247.445 814.300, 246.499 819.014, 246.505 836.500 C 246.509 849.406, 246.836 852.547, 248.847 859 C 252.804 871.700, 257.552 879.668, 266.443 888.530 C 283.005 905.036, 306.757 912.988, 339.500 912.988 C 382.845 912.988, 412.269 898.031, 425.724 869.157 C 430.564 858.773, 432.264 849.807, 432.202 835 C 432.141 820.415, 430.120 811.160, 424.605 800.208 C 413.554 778.265, 392.226 765.046, 360.500 760.477 C 351.466 759.176, 331.154 758.731, 323.500 759.666 M 441 789 L 441 813 443.851 813 C 448.333 813, 452.512 814.848, 454.689 817.793 C 456.932 820.827, 458.313 824.256, 477.031 873.250 L 490.307 908 523.974 908 L 557.640 908 562.452 895.250 C 572.197 869.433, 573.230 866.897, 573.777 867.444 C 574.085 867.751, 577.773 876.890, 581.973 887.751 L 589.610 907.500 624.636 907.763 L 659.663 908.025 675.480 866.763 C 684.180 844.068, 692.118 823.855, 693.121 821.845 C 695.488 817.098, 699.350 814.128, 704.150 813.360 L 708 812.744 708 788.872 L 708 765 675.500 765 L 643 765 643 789 L 643 813 645.500 813 C 648.223 813, 652 816.150, 652 818.420 C 652 820.112, 639.218 862.115, 638.479 862.855 C 637.328 864.005, 636.064 860.605, 630.605 841.676 C 627.064 829.399, 625.005 820.460, 625.194 818.194 C 625.504 814.492, 625.845 814.230, 632.750 812.395 C 633.705 812.141, 634 806.513, 634 788.531 L 634 765 590 765 L 546 765 546 789 L 546 813 548.277 813 C 551.608 813, 555 815.759, 555 818.468 C 555 820.941, 542.692 861.641, 541.620 862.713 C 541.279 863.054, 540.717 863.050, 540.370 862.704 C 539.263 861.597, 528 821.811, 528 819.007 C 528 815.659, 530.802 813, 534.329 813 L 537 813 537 789 L 537 765 489 765 L 441 765 441 789 M 836.232 788.750 L 836.500 812.500 841.571 813.119 C 847.167 813.802, 849.697 814.886, 852.161 817.657 C 853.560 819.231, 900.387 908.503, 908.593 925.241 L 911.408 930.981 909.188 935.551 C 906.634 940.807, 898.838 949.515, 894.831 951.587 C 893.329 952.364, 889.602 953, 886.550 953 C 880.843 953, 879.126 951.687, 883.423 950.609 C 886.963 949.720, 892.068 945.082, 893.636 941.329 C 895.446 936.996, 895.373 926.136, 893.502 921.659 C 889.852 912.924, 881.970 907.332, 871.649 906.156 C 849.420 903.622, 833.375 915.813, 832.199 936.130 C 831.250 952.514, 838.755 965.419, 853.840 973.346 C 863.210 978.271, 871.212 979.971, 885 979.968 C 907.086 979.963, 918.385 975.653, 932.043 962.025 C 941.161 952.927, 945.256 946.156, 953.829 926 C 956.051 920.775, 967.747 895.350, 979.818 869.500 C 1005.070 815.426, 1005.970 813.999, 1015.288 813.226 L 1021 812.752 1021 788.876 L 1021 765 985 765 L 949 765 949 788.870 L 949 812.740 953.499 813.247 C 958.921 813.858, 961 815.394, 961 818.788 C 961 821.209, 946.047 855.951, 945 855.963 C 944.180 855.972, 928 820.474, 928 818.665 C 928 815.632, 931.717 813, 936 813 L 940 813 940 789 L 940 765 887.982 765 L 835.964 765 836.232 788.750 M 333.095 797.330 C 327.339 798.859, 323.586 803.552, 321.366 812 C 318.947 821.202, 318.942 850.789, 321.357 859.943 C 323.263 867.164, 326.879 872.593, 330.848 874.193 C 335.228 875.959, 345.334 875.506, 348.926 873.384 C 356.378 868.983, 359.555 855.215, 358.707 831 C 357.878 807.324, 354.388 799.321, 343.913 797.075 C 338.126 795.834, 338.792 795.818, 333.095 797.330" stroke="none" fill="#d1d1d1" fill-rule="evenodd"/></svg>