<svg width="324" height="324" viewBox="0 0 324 324" fill="none" xmlns="http://www.w3.org/2000/svg">
<path fill-rule="evenodd" clip-rule="evenodd" d="M45.3581 193.22C44.9847 193.297 44.4152 193.651 44.0925 194.007C43.5473 194.609 43.4989 195.483 43.409 206.33L43.3119 218.004H44.912H46.5117V207.088V196.172H57.4277H68.3437V207.088V218.004H69.9403H71.5369L71.4433 206.305C71.3496 194.613 71.3493 194.606 70.6291 193.886L69.909 193.166L57.9729 193.123C51.4084 193.099 45.7315 193.143 45.3581 193.22ZM76.3668 193.31C75.5448 193.656 74.6719 194.84 74.6719 195.61C74.6719 196.131 75.1734 196.172 81.6328 196.172H88.5937V205.506V214.84H83.0566H77.5195V207.088V199.336H76.0957H74.6719V207.548C74.6719 212.977 74.793 216.025 75.0294 216.544C75.6435 217.892 76.6073 218.049 83.6334 217.943C89.9394 217.849 90.184 217.821 90.8795 217.125L91.5996 216.404V205.506V194.607L90.8795 193.886C90.1818 193.188 89.9574 193.164 83.6021 193.095C79.9957 193.056 76.7399 193.153 76.3668 193.31ZM96.9323 193.218C96.5589 193.296 95.9894 193.651 95.6667 194.008C95.1215 194.61 95.0737 195.478 94.9899 206.33L94.8997 218.004H96.4928H98.0859V207.088V196.172H103.623H109.16V207.088V218.004H110.584H112.008V206.473V194.942L111.245 194.054L110.482 193.166L104.047 193.121C100.507 193.097 97.3057 193.14 96.9323 193.218ZM117.182 193.218C116.809 193.296 116.239 193.651 115.917 194.008C115.372 194.61 115.324 195.478 115.24 206.33L115.15 218.004H116.743H118.336V207.088V196.172H123.873H129.41V207.088V218.004H130.834H132.258V206.473V194.942L131.495 194.054L130.732 193.166L124.297 193.121C120.757 193.097 117.556 193.14 117.182 193.218ZM137.478 193.235C136.493 193.475 135.817 194.225 135.668 195.242L135.531 196.172H142.596H149.66V205.506V214.84H144.123H138.586V207.088V199.336H136.981H135.376L135.478 207.871C135.578 216.262 135.592 216.417 136.3 217.126C136.994 217.82 137.249 217.849 143.401 217.944C150.324 218.05 150.945 217.985 151.883 217.047C152.481 216.449 152.508 215.954 152.508 205.643C152.508 199.218 152.383 194.631 152.198 194.286C151.637 193.238 150.107 193.007 143.997 193.045C140.76 193.065 137.827 193.151 137.478 193.235ZM173.187 193.322C171.511 193.998 171.492 194.145 171.492 206.526V218.004H172.916H174.34V207.088V196.172H185.414H196.488V207.088V218.004H197.912H199.336V206.434C199.336 199.493 199.212 194.633 199.026 194.286C198.856 193.967 198.265 193.55 197.713 193.357C196.504 192.936 174.224 192.903 173.187 193.322ZM204.557 193.235C203.571 193.475 202.895 194.225 202.746 195.242L202.609 196.172H209.674H216.738V205.506V214.84H211.201H205.664V207.088V199.336H204.059H202.454L202.556 207.871C202.657 216.262 202.67 216.417 203.378 217.126C204.072 217.82 204.327 217.849 210.479 217.944C217.402 218.05 218.023 217.985 218.961 217.047C219.559 216.449 219.586 215.954 219.586 205.643C219.586 199.218 219.461 194.631 219.276 194.286C218.715 193.238 217.185 193.007 211.075 193.045C207.838 193.065 204.905 193.151 204.557 193.235ZM224.459 193.46C223.919 193.694 223.385 194.128 223.272 194.422C223.159 194.717 223.066 200.143 223.066 206.481V218.004H224.49H225.914V207.088V196.172H231.451H236.988V207.088V218.004H238.412H239.836V206.434C239.836 199.493 239.712 194.633 239.526 194.286C238.97 193.246 237.422 193.007 231.325 193.02C227.104 193.029 225.162 193.153 224.459 193.46ZM243.316 194.59V196.172H251.701H260.086V194.59V193.008H251.701H243.316V194.59ZM263.566 199.192C263.566 207.506 262.99 206.93 271.304 206.93H277.488V212.467V218.004H279.07H280.652V212.356C280.652 206.38 280.42 205.03 279.292 204.443C278.858 204.217 276.333 204.051 272.584 204.002L266.572 203.924L266.486 198.466L266.399 193.008H264.983H263.566V199.192ZM277.558 196.884L277.646 200.76H279.07H280.494L280.583 196.884L280.672 193.008H279.07H277.469L277.558 196.884ZM56.0039 208.67V218.004H57.4277H58.8516V208.67V199.336H57.4277H56.0039V208.67ZM183.832 208.67V218.004H185.414H186.996V208.67V199.336H185.414H183.832V208.67ZM243.316 210.252V211.676H250.277H257.238V210.252V208.828H250.277H243.316V210.252ZM243.316 216.422V218.004H251.701H260.086V216.422V214.84H251.701H243.316V216.422Z" fill="#393E46"/>
<path fill-rule="evenodd" clip-rule="evenodd" d="M154.09 82.9323C147.434 83.6841 140.306 86.0144 134.705 89.2693C121.745 96.801 112.602 109.817 110.098 124.3C109.233 129.298 109.239 137.157 110.111 141.997C111.398 149.147 114.445 156.464 118.574 162.316C122.762 168.255 129.535 174.232 136.055 177.743C143.624 181.82 153.688 184.153 161.684 183.683C169.76 183.208 175.619 181.693 182.468 178.309C197.684 170.79 208.133 155.891 210.111 138.893C210.35 136.835 210.424 133.842 210.306 130.992C209.987 123.314 208.547 117.748 205.025 110.584C197.628 95.5401 183.251 85.2683 166.493 83.0544C162.654 82.5472 157.911 82.5004 154.09 82.9323ZM155.039 106.931V108.815L153.853 109.004C146.821 110.122 142.535 112.78 140.359 117.371C139.438 119.316 139.377 119.668 139.377 123.082C139.377 126.37 139.459 126.896 140.227 128.536C141.992 132.3 146.2 135.153 152.424 136.804L155.197 137.54L155.286 141.571L155.375 145.601L154.342 145.375C151.163 144.676 147.815 143.239 144.626 141.204C143.299 140.357 142.86 140.207 142.671 140.535C142.538 140.768 141.211 142.739 139.723 144.914L137.018 148.869L137.722 149.42C140.26 151.401 147.426 154.31 151.559 155.037C155.467 155.724 155.039 155.237 155.039 159V162.316H158.52H162V159.06V155.804L164.698 155.294C171.926 153.93 176.915 149.347 177.477 143.558C178.073 137.402 175.756 132.831 170.676 130.148C168.859 129.189 163.107 127.195 162.154 127.195C161.763 127.195 161.684 126.534 161.684 123.266V119.336L162.87 119.648C163.523 119.82 165.511 120.663 167.288 121.521C169.066 122.38 170.583 123.082 170.66 123.082C170.826 123.082 175.495 115.51 175.77 114.796C175.905 114.444 175.502 114.019 174.382 113.33C171.355 111.467 167.34 110.033 163.187 109.332L162 109.131V107.089V105.047H158.52H155.039V106.931ZM153.697 119.032C152.219 119.425 150.926 120.903 150.926 122.199C150.926 123.391 152.51 124.997 154.198 125.515L155.355 125.871V122.261C155.355 120.276 155.249 118.667 155.118 118.685C154.987 118.703 154.348 118.859 153.697 119.032ZM161.684 142.233C161.684 146.342 161.69 146.35 164.11 145.25C165.567 144.589 166.113 143.832 166.113 142.474C166.113 140.931 165.042 139.878 162.477 138.903L161.684 138.602V142.233ZM266.561 198.545L266.572 203.924L272.109 203.935L277.646 203.946L272.196 203.849L266.745 203.751L266.648 198.459L266.55 193.166L266.561 198.545ZM239.979 206.613C239.979 212.965 240.021 215.564 240.073 212.388C240.125 209.212 240.125 204.015 240.073 200.839C240.021 197.663 239.979 200.261 239.979 206.613ZM222.893 206.771C222.893 213.036 222.935 215.644 222.987 212.566C223.039 209.489 223.039 204.363 222.987 201.176C222.935 197.989 222.893 200.507 222.893 206.771ZM199.479 206.93C199.479 213.108 199.521 215.635 199.573 212.546C199.624 209.457 199.624 204.403 199.573 201.313C199.521 198.225 199.479 200.752 199.479 206.93ZM108.986 207.088C108.986 213.179 109.029 215.625 109.081 212.525C109.133 209.425 109.132 204.442 109.08 201.451C109.029 198.46 108.986 200.997 108.986 207.088ZM129.236 207.088C129.236 213.179 129.279 215.625 129.331 212.525C129.383 209.425 129.382 204.442 129.33 201.451C129.279 198.46 129.236 200.997 129.236 207.088ZM149.484 205.506C149.484 210.727 149.527 212.907 149.58 210.351C149.633 207.794 149.634 203.523 149.58 200.858C149.528 198.194 149.484 200.285 149.484 205.506ZM152.648 205.506C152.648 210.727 152.691 212.907 152.744 210.351C152.797 207.794 152.798 203.523 152.744 200.858C152.692 198.194 152.648 200.285 152.648 205.506ZM174.482 207.088C174.483 213.179 174.525 215.625 174.577 212.525C174.629 209.425 174.628 204.442 174.577 201.451C174.525 198.46 174.482 200.997 174.482 207.088ZM216.562 205.506C216.562 210.727 216.605 212.907 216.659 210.351C216.711 207.794 216.712 203.523 216.659 200.858C216.606 198.194 216.562 200.285 216.562 205.506ZM219.726 205.506C219.726 210.727 219.769 212.907 219.823 210.351C219.875 207.794 219.876 203.523 219.823 200.858C219.77 198.194 219.726 200.285 219.726 205.506ZM58.9917 208.67C58.9917 213.891 59.0351 216.071 59.0882 213.515C59.1411 210.958 59.1414 206.687 59.0882 204.023C59.0354 201.358 58.992 203.449 58.9917 208.67ZM77.6569 207.088C77.6565 211.438 77.7011 213.262 77.7559 211.14C77.8103 209.019 77.8106 205.459 77.7562 203.23C77.7018 201.001 77.6569 202.737 77.6569 207.088ZM269.008 207.165C270.522 207.223 273.085 207.223 274.704 207.166C276.322 207.108 275.084 207.061 271.951 207.06C268.819 207.06 267.495 207.107 269.008 207.165ZM243.127 208.953C243.034 209.196 243.015 209.943 243.084 210.614C243.204 211.778 243.213 211.765 243.263 210.337L243.316 208.84L250.198 208.749L257.08 208.657L250.188 208.584C244.536 208.525 243.266 208.591 243.127 208.953ZM41.7656 225.914V228.129H162H282.234V225.914V223.699H162H41.7656V225.914Z" fill="#1F8D69"/>
</svg>
