<svg xmlns="http://www.w3.org/2000/svg" width="1024" height="1024" viewBox="0 0 1024 1024" version="1.1"><path d="M 417.250 52.750 C 469.363 52.893, 554.638 52.893, 606.750 52.750 C 658.863 52.607, 616.225 52.490, 512 52.490 C 407.775 52.490, 365.138 52.607, 417.250 52.750 M 368.430 128 C 368.430 140.925, 368.573 146.213, 368.747 139.750 C 368.921 133.287, 368.921 122.712, 368.747 116.250 C 368.573 109.787, 368.430 115.075, 368.430 128 M 671.438 131.500 C 671.437 146.350, 671.576 152.564, 671.747 145.310 C 671.918 138.055, 671.918 125.905, 671.748 118.310 C 671.578 110.714, 671.438 116.650, 671.438 131.500 M 599.877 208.517 C 581.192 217.453, 572.974 219.430, 557.500 218.712 C 548.657 218.302, 542.475 217.350, 534 215.095 C 527.675 213.412, 516.627 210.481, 509.449 208.581 C 478.312 200.341, 452.530 201.696, 423.341 213.108 C 414.178 216.691, 412.673 217.617, 411.285 220.529 C 409.975 223.275, 409.910 224.370, 410.914 226.792 C 411.583 228.407, 425.931 242.952, 442.799 259.114 C 459.667 275.276, 477.363 292.236, 482.123 296.803 C 491.803 306.089, 496.229 313.238, 497.880 322.254 C 499.166 329.280, 500.188 331.286, 503.782 333.845 C 508.237 337.017, 513.117 337.484, 518.220 335.227 C 523.133 333.054, 525.307 329.582, 526.503 322 C 526.893 319.525, 528.790 314.473, 530.717 310.774 C 533.797 304.865, 537.635 300.804, 562.361 277.297 C 605.897 235.907, 611.689 230.089, 617.007 222.395 C 623.450 213.076, 624.127 211.207, 622.478 207.286 C 621.099 204.006, 618.379 201.999, 615.316 202.001 C 614.317 202.001, 607.370 204.933, 599.877 208.517 M 406 248.500 C 409.543 252.075, 412.667 255, 412.942 255 C 413.217 255, 410.543 252.075, 407 248.500 C 403.457 244.925, 400.333 242, 400.058 242 C 399.783 242, 402.457 244.925, 406 248.500 M 627.473 261.250 L 620.500 268.500 627.750 261.527 C 631.737 257.692, 635 254.429, 635 254.277 C 635 253.543, 633.950 254.516, 627.473 261.250 M 508.500 357.208 C 505.484 358.937, 504.067 361.192, 504.032 364.316 C 503.962 370.513, 509.416 374.313, 515.038 371.984 C 521.700 369.225, 521.860 360.649, 515.316 357.163 C 512.614 355.724, 511.069 355.734, 508.500 357.208 M 508.500 390.208 C 503.372 393.148, 502.400 399.491, 506.455 403.545 C 511.511 408.602, 520.037 404.974, 519.968 397.795 C 519.933 394.125, 518.577 391.900, 515.316 390.163 C 512.614 388.724, 511.069 388.734, 508.500 390.208 M 617 423.500 C 619.987 426.525, 622.657 429, 622.932 429 C 623.207 429, 620.987 426.525, 618 423.500 C 615.013 420.475, 612.343 418, 612.068 418 C 611.793 418, 614.013 420.475, 617 423.500 M 490.677 424 C 477.592 426.758, 471.621 428.846, 460.076 434.702 C 427.180 451.387, 404.310 482.477, 398.477 518.445 C 396.224 532.335, 396.470 537.153, 399.580 540.076 L 402.161 542.500 510.330 542.779 C 569.824 542.932, 619.524 542.808, 620.775 542.504 C 625.326 541.395, 627 538.502, 626.999 531.750 C 626.995 513.639, 618.937 489.578, 606.977 471.967 C 601.074 463.273, 589.877 451.697, 580.915 445.022 C 572.402 438.682, 558.586 431.300, 549.373 428.170 C 531.096 421.960, 508.107 420.327, 490.677 424 M 352.231 536.223 L 352 560.947 337.250 561.252 L 322.500 561.558 337.281 561.779 C 348.472 561.946, 352.181 561.692, 352.550 560.730 C 352.818 560.032, 352.908 548.669, 352.750 535.480 L 352.462 511.500 352.231 536.223 M 671.473 537.249 L 671.500 561.500 686 561.540 L 700.500 561.580 686.268 561.263 L 672.035 560.947 671.740 536.973 L 671.446 512.999 671.473 537.249 M 368.468 540.500 L 368.500 561.500 511.750 561.505 L 655 561.510 512.020 561.252 L 369.041 560.993 368.738 540.247 L 368.436 519.500 368.468 540.500 M 5.667 716.667 C 4.742 717.592, 4.823 765, 5.750 765.001 C 6.162 765.001, 6.372 754.205, 6.215 741.010 L 5.931 717.018 56.715 716.750 L 107.500 716.481 56.917 716.241 C 29.096 716.108, 6.033 716.300, 5.667 716.667 M 195.285 716.750 L 237.069 717.022 236.785 741.012 C 236.628 754.206, 236.838 765.001, 237.250 765.001 C 237.662 765, 238 753.975, 238 740.500 L 238 716 195.750 716.239 L 153.500 716.477 195.285 716.750 M 744.250 716.749 C 756.763 716.908, 777.238 716.908, 789.750 716.749 C 802.263 716.590, 792.025 716.461, 767 716.461 C 741.975 716.461, 731.738 716.590, 744.250 716.749 M 545.431 788.500 C 545.432 801.700, 545.574 806.962, 545.747 800.193 C 545.921 793.424, 545.920 782.624, 545.746 776.193 C 545.572 769.762, 545.431 775.300, 545.431 788.500 M 642.432 789 C 642.432 802.475, 642.574 807.987, 642.747 801.250 C 642.920 794.513, 642.920 783.487, 642.747 776.750 C 642.574 770.013, 642.432 775.525, 642.432 789 M 708.431 788.500 C 708.432 801.700, 708.574 806.962, 708.747 800.193 C 708.921 793.424, 708.920 782.624, 708.746 776.193 C 708.572 769.762, 708.431 775.300, 708.431 788.500 M 836.206 788.750 C 836.093 802.087, 836.337 813.001, 836.750 813.001 C 837.163 813.002, 837.384 805.915, 837.242 797.251 C 836.753 767.378, 836.411 764.573, 836.206 788.750 M 939.999 788.702 C 939.724 802.012, 939.846 812.556, 940.269 812.133 C 940.692 811.709, 940.916 800.818, 940.767 787.931 L 940.497 764.500 939.999 788.702 M 26.453 812 C 26.453 832.625, 26.586 841.063, 26.749 830.750 C 26.911 820.438, 26.911 803.563, 26.749 793.250 C 26.586 782.938, 26.453 791.375, 26.453 812 M 171.790 798.001 C 171.631 809.002, 171.838 818.002, 172.250 818.001 C 172.662 818, 173 809, 173 798 C 173 787, 172.793 778, 172.540 778 C 172.287 778, 171.950 787, 171.790 798.001 M 740.449 812.500 C 740.449 831.200, 740.584 838.709, 740.749 829.186 C 740.913 819.663, 740.913 804.363, 740.748 795.186 C 740.583 786.009, 740.449 793.800, 740.449 812.500 M 73.328 811.500 C 73.333 815.350, 73.513 816.802, 73.730 814.728 C 73.946 812.653, 73.943 809.503, 73.722 807.728 C 73.501 805.952, 73.324 807.650, 73.328 811.500 M 73.407 835 C 73.407 844.075, 73.559 847.788, 73.744 843.250 C 73.929 838.712, 73.929 831.288, 73.744 826.750 C 73.559 822.212, 73.407 825.925, 73.407 835 M 319.378 836 C 319.378 842.325, 319.541 844.913, 319.739 841.750 C 319.937 838.587, 319.937 833.413, 319.739 830.250 C 319.541 827.087, 319.378 829.675, 319.378 836 M 5.667 859.667 C 5.300 860.033, 5 871.058, 5 884.167 L 5 908 50.018 908 L 95.036 908 94.768 883.750 L 94.500 859.500 90.500 859.414 L 86.500 859.329 90.250 859.722 L 94 860.115 94 883.557 L 94 907 50 907 L 6 907 6 883.566 L 6 860.133 8.750 859.716 L 11.500 859.300 8.917 859.150 C 7.496 859.067, 6.033 859.300, 5.667 859.667 M 411.966 888.750 L 406.500 894.500 412.250 889.034 C 417.592 883.956, 418.458 883, 417.716 883 C 417.560 883, 414.972 885.587, 411.966 888.750 M 558 905.859 C 558 906.764, 549.715 906.985, 523.595 906.775 C 504.672 906.624, 489.399 906.837, 489.654 907.250 C 489.909 907.663, 505.365 908, 524 908 C 556.001 908, 560.943 907.610, 558.600 905.267 C 558.270 904.937, 558 905.203, 558 905.859 M 862.750 905.723 C 864.538 905.945, 867.462 905.945, 869.250 905.723 C 871.038 905.502, 869.575 905.320, 866 905.320 C 862.425 905.320, 860.962 905.502, 862.750 905.723 M 140.861 907.262 C 141.281 907.681, 159.146 907.906, 180.562 907.761 L 219.500 907.499 179.799 906.999 C 157.964 906.725, 140.442 906.843, 140.861 907.262 M 624.500 907 L 588.500 907.538 624.191 907.769 C 647.159 907.918, 660.102 907.644, 660.500 907 C 660.840 906.450, 660.979 906.104, 660.809 906.231 C 660.639 906.358, 644.300 906.704, 624.500 907 M 749.321 907.749 C 764.622 907.905, 789.372 907.905, 804.321 907.749 C 819.269 907.594, 806.750 907.467, 776.500 907.467 C 746.250 907.467, 734.019 907.594, 749.321 907.749 M 894.161 923.301 C 895.611 926.011, 895.319 937.301, 893.698 941.179 C 892.076 945.063, 887.015 949.707, 883.423 950.609 C 879.126 951.687, 880.843 953, 886.550 953 C 889.602 953, 893.329 952.364, 894.831 951.587 C 898.826 949.521, 906.631 940.813, 909.169 935.590 L 911.370 931.059 909.131 926.280 L 906.892 921.500 900.045 921.500 C 893.759 921.500, 893.276 921.648, 894.161 923.301 M 13.500 922.850 C 9.474 924.159, 5.410 927.242, 2.985 930.827 C 1.014 933.740, 0.500 935.757, 0.500 940.573 C 0.500 948.262, 3.780 953.747, 10.250 956.879 L 14.631 959 425.616 959 C 753.020 959, 836.873 959.254, 837.943 960.250 C 838.682 960.938, 838.348 960.150, 837.201 958.500 C 831.989 951.002, 830.387 932.945, 834.246 925.209 L 835.847 922 425.673 922.100 C 200.078 922.155, 14.600 922.492, 13.500 922.850 M 953.063 927.694 C 948.054 940.063, 940.799 952.886, 935.297 959.093 C 932.174 962.617, 931.188 964.038, 933.107 962.250 L 936.595 959 972.982 959 C 1008.017 959, 1009.531 958.921, 1013.750 956.879 C 1020.220 953.747, 1023.500 948.262, 1023.500 940.573 C 1023.500 933.548, 1021.025 928.949, 1015.078 924.922 C 1011.533 922.523, 1011.239 922.497, 983.457 922.194 L 955.414 921.888 953.063 927.694 M 879.728 980.722 C 881.503 980.943, 884.653 980.946, 886.728 980.730 C 888.802 980.513, 887.350 980.333, 883.500 980.328 C 879.650 980.324, 877.952 980.501, 879.728 980.722" stroke="none" fill="#7a5fa6" fill-rule="evenodd"/><path d="M 320.073 55.635 C 318.125 58.110, 318.002 59.517, 318.032 78.885 C 318.054 93.512, 318.417 99.961, 319.282 101.087 C 321.813 104.383, 324.831 105, 338.434 105 L 352 105 352.023 127.250 C 352.068 171.539, 355.667 194.467, 366.426 219.013 C 376.176 241.256, 383.508 249.905, 423 285.752 C 440.875 301.978, 456.760 316.659, 458.300 318.377 C 465.447 326.347, 467.124 336.752, 462.768 346.098 C 461.384 349.069, 459.377 352.400, 458.308 353.500 C 457.239 354.600, 441.856 368.730, 424.124 384.900 C 406.392 401.069, 389.272 417.495, 386.081 421.401 C 370.661 440.272, 361.748 459.660, 355.868 487.120 C 353.932 496.163, 353.572 501.622, 353.073 529.500 L 352.500 561.500 337.302 561.776 C 316.756 562.149, 318 560.461, 318 587.961 L 318 608.651 320.581 611.076 L 323.161 613.500 509.331 613.786 C 611.724 613.943, 696.964 613.810, 698.754 613.490 C 700.544 613.170, 702.906 611.944, 704.004 610.765 C 705.870 608.762, 705.998 607.251, 705.968 587.561 C 705.942 570.374, 705.659 566.132, 704.428 564.500 C 703.063 562.691, 701.422 562.452, 687.210 562 L 671.500 561.500 670.922 531.500 C 670.604 515, 669.780 498.125, 669.090 494 C 664.082 464.034, 654.176 441.129, 637.590 421.171 C 634.241 417.140, 618.675 402.116, 603 387.783 C 563.791 351.932, 564.421 352.559, 561.328 346.238 C 556.762 336.906, 558.394 326.384, 565.653 318.348 C 567.219 316.615, 579.075 305.633, 592 293.945 C 631.869 257.890, 639.994 249.305, 649.928 232.744 C 658.611 218.269, 664.815 201.025, 668.545 181 C 669.936 173.536, 670.408 164.374, 670.749 138.250 L 671.183 105 685.141 105 C 699.623 105, 704.013 104.014, 705.379 100.455 C 705.720 99.565, 706 89.508, 706 78.107 C 706 58.627, 705.877 57.245, 703.961 55.189 L 701.922 53 512.034 53 L 322.145 53 320.073 55.635 M 368.009 125.250 C 368.028 170.411, 371.960 193.928, 383.263 216.500 C 392.831 235.605, 397.579 240.961, 434.861 274.712 C 472.648 308.919, 473.582 309.864, 477.060 317.391 C 483.154 330.581, 482.983 341.452, 476.470 354.712 C 473.079 361.617, 471.550 363.181, 440.555 391.457 C 422.750 407.701, 404.878 424.550, 400.841 428.899 C 384.648 446.344, 373.706 471.399, 369.900 499.750 C 369.253 504.563, 368.674 520.425, 368.612 535 L 368.500 561.500 511.856 561.753 L 655.212 562.007 654.703 531.253 C 654.164 498.696, 653.522 492.945, 648.478 475.500 C 647.047 470.550, 643.923 462.370, 641.536 457.322 C 632.575 438.375, 626.962 431.860, 592 399.826 C 550.911 362.177, 550.503 361.768, 546.988 354.627 C 540.802 342.061, 540.793 330.062, 546.961 317.461 C 550.377 310.483, 554.731 306.067, 591.500 272.291 C 605.250 259.660, 619.170 246.440, 622.432 242.913 C 634.127 230.271, 644.018 212.297, 648.932 194.757 C 653.634 177.970, 654.160 172.809, 654.690 138.250 L 655.200 105 511.600 105 L 368 105 368.009 125.250 M 6.232 740.750 L 6.500 764.500 12.850 765.200 C 20.359 766.029, 23.655 767.929, 25.584 772.546 C 27.658 777.510, 27.658 846.490, 25.584 851.454 C 23.690 855.985, 20.489 857.895, 12.590 859.204 L 6 860.296 6 883.648 L 6 907 50 907 L 94 907 94 883.500 L 94 860 91.049 860 C 85.148 860, 78.248 857.893, 75.871 855.364 C 73.521 852.865, 73.497 852.610, 73.201 827.205 C 73.036 813.105, 73.261 801.918, 73.701 802.346 C 74.140 802.773, 89.388 826.383, 107.584 854.812 L 140.668 906.500 179.834 906.762 L 219 907.023 219 840.913 C 219 769.631, 218.947 770.388, 224.200 767.107 C 225.411 766.351, 228.673 765.455, 231.450 765.116 L 236.500 764.500 236.768 740.750 L 237.036 717 195.500 717 L 153.964 717 154.232 740.750 L 154.500 764.500 160.025 765.094 C 166.829 765.826, 169.757 767.319, 171.233 770.811 C 172.580 773.999, 173.621 818.025, 172.346 817.950 C 171.881 817.923, 157.100 795.205, 139.500 767.467 L 107.500 717.034 56.732 717.017 L 5.964 717 6.232 740.750 M 722 740.455 L 722 763.909 725.750 764.487 C 730.963 765.290, 735.959 767.986, 738.419 771.323 C 740.440 774.065, 740.500 775.228, 740.500 811.823 C 740.500 847.896, 740.413 849.649, 738.466 853 C 736.040 857.174, 730.912 859.996, 725.750 859.998 L 722 860 722 883.500 L 722 907 776.500 907 L 831 907 831 883.500 L 831 860 826.968 860 C 822.078 860, 817.194 858.054, 814.500 855.034 C 812.548 852.844, 812.493 851.174, 812.223 784.896 L 811.946 717 766.973 717 L 722 717 722 740.455 M 320.500 760.076 C 273.828 766.534, 248.558 790.698, 246.328 831 C 244.487 864.278, 259.089 889.937, 287.322 903.040 C 317.240 916.924, 364.158 916.327, 393.988 901.682 C 400.794 898.341, 404.330 895.699, 411.626 888.502 C 419.272 880.959, 421.406 878.122, 424.786 871 C 430.173 859.648, 432.162 850.210, 432.162 836 C 432.162 795.762, 409.663 770.045, 366.971 761.487 C 357.677 759.623, 329.872 758.780, 320.500 760.076 M 441.232 788.750 L 441.500 812.500 445.500 813.055 C 450.619 813.765, 453.275 815.245, 455.486 818.619 C 456.459 820.104, 464.586 840.485, 473.546 863.910 L 489.837 906.500 523.810 906.763 L 557.783 907.026 561.361 897.763 C 563.328 892.668, 566.707 883.775, 568.869 878 C 571.032 872.225, 573.183 867.653, 573.650 867.841 C 574.118 868.029, 577.875 876.921, 582 887.601 L 589.500 907.021 624.821 906.760 L 660.142 906.500 676.677 863.500 C 685.770 839.850, 694.176 819.445, 695.355 818.155 C 698.151 815.099, 702.260 813, 705.450 813 L 708 813 708 789 L 708 765 675.500 765 L 643 765 643 789 L 643 813 645.500 813 C 648.396 813, 652.008 816.204, 651.982 818.750 C 651.962 820.746, 639.371 861.962, 638.522 862.811 C 637.281 864.052, 635.990 860.630, 630.562 841.713 C 627.025 829.387, 625 820.533, 625.192 818.231 C 625.504 814.486, 625.832 814.233, 632.750 812.395 C 633.705 812.141, 634 806.513, 634 788.531 L 634 765 590 765 L 546 765 546 789 L 546 813 548.277 813 C 551.828 813, 555.003 815.750, 554.981 818.807 C 554.949 823.352, 542.457 862.500, 541.039 862.500 C 539.580 862.500, 528.050 824.366, 528.038 819.500 C 528.028 815.363, 529.179 813.915, 533.121 813.110 L 536.500 812.419 536.768 788.710 L 537.036 765 489 765 L 440.964 765 441.232 788.750 M 837.232 788.738 L 837.500 812.476 842.313 813.164 C 848.259 814.014, 851.329 815.960, 854.321 820.775 C 858.276 827.139, 911 929.522, 911 930.837 C 911 935.200, 900.526 948.642, 894.831 951.587 C 893.329 952.364, 889.602 953, 886.550 953 C 880.843 953, 879.126 951.687, 883.423 950.609 C 887.015 949.707, 892.076 945.063, 893.698 941.179 C 896.043 935.567, 895.541 926.002, 892.597 920.191 C 887.327 909.792, 878.456 905.504, 863.646 906.200 C 853.270 906.688, 848.617 908.547, 841.611 915.004 C 835.508 920.630, 832.736 926.853, 832.199 936.130 C 831.076 955.519, 841.561 969.613, 862.707 977.140 C 866.818 978.604, 872.014 979.356, 880.598 979.730 C 905.318 980.809, 920.060 975.374, 934.388 959.899 C 941.187 952.554, 946.751 942.828, 953.778 926 C 959.872 911.407, 1001.913 821.931, 1004.156 818.781 C 1006.753 815.134, 1009.267 813.871, 1015.429 813.119 L 1020.500 812.500 1020.768 788.750 L 1021.036 765 985 765 L 948.964 765 949.232 788.750 L 949.500 812.500 953.663 813.056 C 958.823 813.744, 960.996 815.465, 961.012 818.872 C 961.024 821.416, 946.064 855.982, 944.946 855.994 C 943.980 856.004, 928 820.467, 928 818.309 C 928 815.452, 930.431 813.710, 935.337 813.056 L 939.500 812.500 939.768 788.750 L 940.036 765 888.500 765 L 836.964 765 837.232 788.738 M 332.609 797.272 C 327.470 798.898, 323.468 804.033, 321.520 811.500 C 318.243 824.067, 318.564 851.137, 322.132 863.047 C 322.792 865.249, 324.720 868.627, 326.416 870.554 C 332.405 877.358, 345.931 877.497, 352.169 870.819 C 356.729 865.938, 358.162 859.413, 358.719 841 C 359.497 815.283, 356.677 803.194, 348.816 798.550 C 345.111 796.362, 337.408 795.754, 332.609 797.272" stroke="none" fill="#393e46" fill-rule="evenodd"/></svg>