<svg width="324" height="324" viewBox="0 0 324 324" fill="none" xmlns="http://www.w3.org/2000/svg">
<path fill-rule="evenodd" clip-rule="evenodd" d="M155.039 106.923C155.039 108.613 154.968 108.815 154.327 108.953C153.7 109.087 153.709 109.099 154.406 109.054C155.14 109.006 155.204 108.87 155.292 107.193L155.386 105.384L158.772 105.283L162.158 105.181L158.599 105.114L155.039 105.047V106.923ZM155.476 122.291C155.477 124.379 155.528 125.192 155.59 124.098C155.652 123.004 155.652 121.295 155.589 120.301C155.526 119.307 155.476 120.203 155.476 122.291ZM161.802 158.994C161.803 160.908 161.855 161.651 161.918 160.644C161.981 159.637 161.98 158.071 161.916 157.163C161.853 156.256 161.801 157.08 161.802 158.994ZM44.936 193.414C43.4068 194.188 43.3571 194.602 43.3524 206.692L43.3477 218.004H44.9297H46.5117V207.088V196.172H57.4277H68.3438V207.088V218.004H69.9369H71.53L71.4398 206.269L71.3496 194.534L70.4618 193.771L69.5739 193.008L57.6473 193.013C48.7164 193.016 45.5236 193.117 44.936 193.414ZM76.0957 193.373C75.1759 193.876 74.6719 194.608 74.6719 195.441V196.172H81.6328H88.5938V205.506V214.84H83.0566H77.5195V207.088V199.336H76.0957H74.6719V207.844C74.6719 215.746 74.7149 216.405 75.2762 217.099C75.8736 217.837 75.9619 217.847 82.8326 217.942L89.785 218.037L90.6922 217.257L91.5996 216.477V205.506V194.535L90.7118 193.771C89.8344 193.017 89.7483 193.008 83.2762 193.017C79.1512 193.024 76.4944 193.155 76.0957 193.373ZM95.8467 193.933L94.9219 194.858V206.431V218.004H96.5039H98.0859V207.088V196.172H103.465H108.844V207.088V218.004H110.426H112.008V206.628C112.008 198.965 111.893 195.001 111.657 194.481C111.056 193.163 110.175 193.008 103.267 193.008H96.7716L95.8467 193.933ZM116.097 193.933L115.172 194.858V206.431V218.004H116.754H118.336V207.088V196.172H123.715H129.094V207.088V218.004H130.676H132.258V206.628C132.258 198.965 132.143 195.001 131.907 194.481C131.306 193.163 130.425 193.008 123.517 193.008H117.022L116.097 193.933ZM137.151 193.309C136.304 193.652 135.838 194.241 135.571 195.304L135.353 196.172H142.507H149.66V205.506V214.84H144.123H138.586V207.088V199.336H136.989H135.393L135.486 207.907L135.58 216.478L136.488 217.257L137.395 218.037L144.347 217.942C151.218 217.847 151.306 217.837 151.903 217.099C152.472 216.397 152.508 215.712 152.508 205.655C152.508 199.772 152.419 194.727 152.311 194.446C151.842 193.223 150.586 193.007 144.06 193.028C140.614 193.039 137.505 193.165 137.151 193.309ZM172.916 193.373C171.49 194.153 171.492 194.136 171.492 206.357V218.004H172.916H174.34V207.088V196.172H185.414H196.488V207.088V218.004H197.912H199.336V206.481C199.336 200.143 199.247 194.727 199.139 194.446C198.622 193.098 197.746 193.007 185.351 193.017C177.421 193.024 173.341 193.141 172.916 193.373ZM204.229 193.309C203.382 193.652 202.916 194.241 202.649 195.304L202.431 196.172H209.585H216.738V205.506V214.84H211.201H205.664V207.088V199.336H204.067H202.471L202.565 207.907L202.658 216.478L203.566 217.257L204.473 218.037L211.425 217.942C218.296 217.847 218.384 217.837 218.982 217.099C219.55 216.397 219.586 215.712 219.586 205.655C219.586 199.772 219.497 194.727 219.389 194.446C218.92 193.223 217.664 193.007 211.138 193.028C207.692 193.039 204.583 193.165 204.229 193.309ZM224.432 193.326C224.052 193.48 223.589 193.888 223.403 194.235C223.183 194.647 223.066 198.853 223.066 206.434V218.004H224.49H225.914V207.088V196.172H231.451H236.988V207.088V218.004H238.57H240.152L240.135 207.009C240.115 195.216 239.991 194.133 238.57 193.416C237.642 192.948 225.562 192.871 224.432 193.326ZM243.316 194.59V196.172H251.859H260.402V194.59V193.008H251.859H243.316V194.59ZM263.566 199.192C263.566 207.506 262.99 206.93 271.304 206.93H277.488V212.467V218.004H279.089H280.689L280.592 211.686C280.506 206.128 280.426 205.301 279.93 204.804C279.437 204.312 278.553 204.22 272.969 204.082L266.572 203.924L266.486 198.466L266.399 193.008H264.983H263.566V199.192ZM277.488 196.963V200.918H279.07H280.652V196.963V193.008H279.07H277.488V196.963ZM56.0039 208.67V218.004H57.4277H58.8516V208.67V199.336H57.4277H56.0039V208.67ZM183.832 208.67V218.004H185.414H186.996V208.67V199.336H185.414H183.832V208.67ZM243.316 210.252V211.676H250.277H257.238V210.252V208.828H250.277H243.316V210.252ZM243.316 216.417V218.004H251.877H260.437L260.341 216.501L260.244 214.998L251.78 214.914L243.316 214.829V216.417Z" fill="#D1D1D0"/>
<path fill-rule="evenodd" clip-rule="evenodd" d="M155.292 107.183L155.197 109.002L153.174 109.251C147.531 109.946 142.773 112.847 140.772 116.811C138.879 120.561 138.814 125.486 140.612 129.034C142.289 132.343 146.851 135.275 152.66 136.776L155.355 137.473V141.51C155.355 144.247 155.243 145.547 155.006 145.547C153.194 145.547 146.789 142.891 144.233 141.08C143.771 140.752 143.259 140.484 143.095 140.484C142.931 140.484 141.547 142.362 140.018 144.658L137.238 148.831L138.139 149.55C140.776 151.653 147.744 154.347 152.464 155.09L155.039 155.495V158.906V162.316H158.361H161.684V159.013V155.711L163.187 155.504C172.568 154.21 177.912 148.694 177.413 140.818C177.18 137.141 176.515 135.441 174.431 133.19C172.376 130.97 169.401 129.366 164.769 127.981L161.684 127.059V123.151C161.684 119.248 161.685 119.243 162.396 119.449C164.381 120.025 166.794 121.021 168.603 122.01C169.712 122.616 170.656 123.069 170.701 123.018C170.745 122.966 171.947 121.023 173.37 118.7C176.35 113.835 176.451 114.425 172.283 112.338C169.416 110.903 167.197 110.165 164.215 109.657L162.158 109.306L162.064 107.335L161.97 105.363H158.678H155.387L155.292 107.183ZM153.18 119.087C152.592 119.3 151.844 119.803 151.518 120.206C150.863 121.015 150.739 122.774 151.267 123.762C151.595 124.375 154.458 125.92 155.276 125.927C155.57 125.929 155.672 124.993 155.672 122.291C155.672 118.721 155.658 118.653 154.96 118.676C154.568 118.69 153.767 118.874 153.18 119.087ZM161.684 142.351C161.684 145.252 161.778 146.131 162.079 146.038C162.297 145.971 162.855 145.833 163.32 145.732C163.785 145.63 164.604 145.178 165.14 144.728C165.926 144.066 166.113 143.667 166.113 142.65C166.113 140.985 165.7 140.292 164.283 139.577C161.548 138.197 161.684 138.053 161.684 142.351Z" fill="white"/>
<path fill-rule="evenodd" clip-rule="evenodd" d="M154.09 82.9323C147.434 83.6841 140.306 86.0144 134.705 89.2693C122.287 96.4862 113.591 108.401 110.374 122.607C109.362 127.075 109.203 136.584 110.056 141.592C111.303 148.915 114.349 156.326 118.574 162.316C119.74 163.97 122.335 166.965 124.34 168.974C132.701 177.347 142.971 182.166 155.355 183.524C160.914 184.134 169.191 183.258 174.979 181.446C178.343 180.392 184.56 177.448 187.471 175.53C197.979 168.603 205.82 157.667 208.833 145.739C210.11 140.683 210.534 136.421 210.301 130.992C209.968 123.252 208.543 117.739 205.025 110.584C195.694 91.6056 175.303 80.5361 154.09 82.9323ZM155.039 106.917V108.786L152.745 109.169C148.217 109.924 144.065 112.016 142.053 114.556C141.533 115.213 140.718 116.581 140.242 117.597C139.456 119.274 139.377 119.778 139.377 123.089C139.377 126.57 139.424 126.829 140.417 128.846C142.455 132.986 146.072 135.141 154.96 137.511C155.25 137.589 155.355 138.678 155.355 141.588V145.559L154.485 145.358C151.047 144.563 148.214 143.334 144.507 141.029C143.673 140.511 142.945 140.14 142.888 140.206C142.016 141.216 137.057 148.858 137.163 149.029C137.481 149.543 141.759 151.882 144.29 152.924C146.746 153.937 150.899 155.063 153.853 155.518L155.039 155.701V159.008V162.316H158.52H162V159.035V155.753L163.661 155.543C167.817 155.017 171.901 153.06 174.284 150.452C177.057 147.418 178.115 143.842 177.507 139.558C176.68 133.727 172.953 130.283 164.848 127.861L161.842 126.963L161.753 123.283C161.682 120.376 161.753 119.602 162.087 119.602C162.949 119.602 166.339 120.917 168.486 122.084L170.701 123.288L173.33 119.032C174.776 116.691 175.89 114.597 175.806 114.378C175.362 113.219 168.863 110.41 164.763 109.604L162 109.061V107.054V105.047H158.52H155.039V106.917ZM154.248 118.946C152.159 119.451 150.926 120.643 150.926 122.161C150.926 123.377 151.938 124.475 153.758 125.231L155.355 125.895V122.274C155.355 120.282 155.32 118.667 155.276 118.685C155.233 118.703 154.77 118.82 154.248 118.946ZM161.684 142.383C161.684 146.275 161.662 146.246 163.904 145.349C165.905 144.549 166.704 142.418 165.597 140.837C165.101 140.129 162.902 138.924 162.079 138.909C161.786 138.904 161.684 139.806 161.684 142.383ZM263.381 198.545C263.381 201.677 263.428 202.916 263.486 201.297C263.544 199.679 263.543 197.116 263.485 195.602C263.428 194.088 263.38 195.412 263.381 198.545ZM266.561 198.545L266.572 203.924L272.268 203.935L277.963 203.945L272.354 203.848L266.745 203.751L266.648 198.459L266.55 193.166L266.561 198.545ZM222.893 206.613C222.893 212.965 222.935 215.564 222.987 212.388C223.039 209.212 223.039 204.015 222.987 200.839C222.935 197.663 222.893 200.261 222.893 206.613ZM152.649 205.506C152.649 211.075 152.692 213.308 152.745 210.469C152.797 207.631 152.797 203.074 152.744 200.344C152.692 197.614 152.649 199.937 152.649 205.506ZM199.479 206.771C199.479 213.036 199.521 215.644 199.573 212.566C199.624 209.489 199.625 204.363 199.573 201.176C199.521 197.989 199.479 200.507 199.479 206.771ZM219.727 205.506C219.727 211.075 219.77 213.308 219.823 210.469C219.875 207.631 219.875 203.074 219.823 200.344C219.77 197.614 219.727 199.937 219.727 205.506ZM171.318 206.93C171.318 213.107 171.361 215.635 171.412 212.546C171.464 209.457 171.464 204.403 171.412 201.313C171.361 198.225 171.318 200.752 171.318 206.93ZM149.484 205.506C149.484 210.727 149.527 212.907 149.58 210.351C149.633 207.794 149.634 203.523 149.58 200.858C149.528 198.194 149.484 200.285 149.484 205.506ZM174.482 207.088C174.483 213.179 174.525 215.625 174.577 212.525C174.629 209.425 174.628 204.442 174.577 201.451C174.525 198.46 174.482 200.997 174.482 207.088ZM196.314 207.088C196.315 213.179 196.357 215.625 196.409 212.525C196.461 209.425 196.46 204.442 196.409 201.451C196.357 198.46 196.314 200.997 196.314 207.088ZM216.562 205.506C216.562 210.727 216.605 212.907 216.659 210.351C216.711 207.794 216.712 203.523 216.659 200.858C216.606 198.194 216.562 200.285 216.562 205.506ZM226.056 207.088C226.057 213.179 226.099 215.625 226.151 212.525C226.203 209.425 226.203 204.442 226.151 201.451C226.099 198.46 226.056 200.997 226.056 207.088ZM55.8277 208.67C55.8277 213.891 55.871 216.071 55.9242 213.515C55.977 210.958 55.9773 206.687 55.9242 204.023C55.8713 201.358 55.828 203.449 55.8277 208.67ZM58.9917 208.67C58.9917 213.891 59.0351 216.071 59.0882 213.515C59.1411 210.958 59.1414 206.687 59.0882 204.023C59.0354 201.358 58.992 203.449 58.9917 208.67ZM74.4931 207.246C74.4931 211.684 74.5374 213.499 74.5918 211.28C74.6462 209.061 74.6462 205.431 74.5918 203.212C74.5374 200.993 74.4931 202.808 74.4931 207.246ZM77.6569 207.088C77.6565 211.438 77.7011 213.262 77.7559 211.14C77.8103 209.019 77.8106 205.459 77.7562 203.23C77.7018 201.001 77.6569 202.737 77.6569 207.088ZM268.724 207.166C270.43 207.223 273.135 207.222 274.736 207.165C276.337 207.108 274.941 207.061 271.635 207.062C268.328 207.062 267.019 207.109 268.724 207.166ZM243.057 210.173L243.114 211.834L243.232 210.337L243.351 208.84L250.374 208.749L257.396 208.657L250.198 208.584L243 208.512L243.057 210.173ZM41.7656 225.914V228.129H162H282.234V225.914V223.699H162H41.7656V225.914Z" fill="#1F8D69"/>
</svg>
