<svg width="324" height="324" viewBox="0 0 324 324" fill="none" xmlns="http://www.w3.org/2000/svg">
<path fill-rule="evenodd" clip-rule="evenodd" d="M155.197 105.442C155.12 105.66 155.018 106.55 154.969 107.42L154.881 109.002L152.994 109.236C147.046 109.975 141.832 113.508 140.164 117.929C138.171 123.214 139.648 129.781 143.489 132.71C145.76 134.442 152.783 137.32 154.739 137.32C155.318 137.32 155.355 137.567 155.355 141.434C155.355 143.696 155.246 145.547 155.112 145.547C154.978 145.547 153.828 145.259 152.558 144.907C150.102 144.226 146.552 142.564 144.399 141.087C142.832 140.012 143.199 139.703 139.585 145.132L137.017 148.989L138.893 150.129C143.062 152.662 147.906 154.455 152.508 155.171L154.881 155.539L154.971 158.928L155.061 162.316H158.53H162V159.013V155.711L163.503 155.508C169.486 154.701 174.44 151.512 176.52 147.129C177.268 145.554 177.346 145.029 177.346 141.592C177.346 138.161 177.266 137.625 176.521 136.036C174.781 132.326 170.997 129.714 164.77 127.923L161.688 127.037L161.685 123.178L161.684 119.319L163.345 119.799C164.259 120.062 166.208 120.873 167.678 121.601C169.147 122.329 170.444 122.965 170.561 123.015C170.677 123.065 171.954 121.158 173.399 118.777C176.446 113.758 176.59 114.412 171.934 112.134C169.522 110.954 166.395 109.987 162.712 109.284C162.061 109.16 162 108.973 162 107.097V105.047H158.668C156.287 105.047 155.296 105.16 155.197 105.442ZM153.932 118.946C151.741 119.475 150.926 120.361 150.926 122.211C150.926 123.53 152.099 124.753 154.015 125.429L155.355 125.902V122.277C155.355 120.283 155.249 118.667 155.118 118.685C154.987 118.703 154.454 118.82 153.932 118.946ZM161.684 142.22C161.684 146.299 161.741 146.377 164.025 145.422C165.892 144.642 166.599 142.846 165.762 141.009C165.426 140.27 165.01 139.999 162.712 139.017L161.684 138.577V142.22ZM44.2725 193.933L43.3477 194.858V206.431V218.004H44.9297H46.5117V207.088V196.172H57.4277H68.3438V207.088V218.004H69.9258H71.5078V206.431V194.858L70.583 193.933L69.6581 193.008H57.4277H45.1974L44.2725 193.933ZM75.4487 193.785C75.0215 194.212 74.6719 194.924 74.6719 195.367V196.172H81.6328H88.5938V205.506V214.84H83.2148H77.8359V207.088V199.336H76.2539H74.6719V207.893V216.451L75.4487 217.227L76.2251 218.004H83.0665H89.9081L90.833 217.079L91.7578 216.154V205.506V194.858L90.833 193.933L89.9081 193.008H83.0665H76.2251L75.4487 193.785ZM95.8711 193.629L95.0801 194.237L94.9899 206.12L94.8997 218.004H96.4928H98.0859V207.088V196.172H103.465H108.844V207.088V218.004H110.426H112.008V206.282V194.56L111.171 193.784C110.335 193.009 110.319 193.008 103.498 193.015C97.249 193.021 96.5941 193.074 95.8711 193.629ZM116.121 193.629L115.33 194.237L115.24 206.12L115.15 218.004H116.743H118.336V207.088V196.172H123.715H129.094V207.088V218.004H130.676H132.258V206.282V194.56L131.421 193.784C130.585 193.009 130.569 193.008 123.748 193.015C117.499 193.021 116.844 193.074 116.121 193.629ZM136.347 193.933C135.838 194.441 135.422 195.153 135.422 195.515C135.422 196.16 135.545 196.172 142.541 196.172H149.66V205.506V214.84H144.123H138.586V207.088V199.336H136.989H135.393L135.486 207.907L135.58 216.478L136.468 217.241C137.347 217.996 137.425 218.004 144.155 218.004C150.952 218.004 150.955 218.004 151.731 217.227L152.508 216.451V205.506V194.561L151.731 193.785L150.955 193.008H144.113H137.272L136.347 193.933ZM172.269 193.785L171.492 194.561V206.283V218.004H173.074H174.656V207.088V196.172H185.572H196.488V207.088V218.004H198.07H199.652L199.645 207.325C199.641 201.452 199.505 196.077 199.344 195.381C198.777 192.931 199.227 193.008 185.365 193.008H173.045L172.269 193.785ZM203.425 193.933C202.916 194.441 202.5 195.153 202.5 195.515C202.5 196.16 202.623 196.172 209.619 196.172H216.738V205.506V214.84H211.201H205.664V207.088V199.336H204.067H202.471L202.565 207.907L202.658 216.478L203.546 217.241C204.425 217.996 204.503 218.004 211.233 218.004C218.03 218.004 218.033 218.004 218.809 217.227L219.586 216.451V205.506V194.561L218.809 193.785L218.033 193.008H211.191H204.35L203.425 193.933ZM223.796 193.771L222.908 194.534L222.815 206.269L222.721 218.004H224.317H225.914V207.088V196.172H231.451H236.988V207.088V218.004H238.581H240.174L240.084 206.269L239.994 194.534L239.106 193.771C238.228 193.016 238.148 193.008 231.451 193.008C224.754 193.008 224.674 193.016 223.796 193.771ZM243 194.59V196.172H251.701H260.402V194.59V193.008H251.701H243V194.59ZM263.566 199.107C263.566 205.965 263.672 206.349 265.711 206.916C266.359 207.095 269.274 207.243 272.188 207.244L277.488 207.246V212.625V218.004H279.07H280.652L280.648 212.071C280.644 207.934 280.522 205.899 280.244 205.348C279.607 204.085 278.156 203.803 272.188 203.783L266.73 203.766V198.387V193.008H265.148H263.566V199.107ZM277.488 196.963V200.918H279.07H280.652V196.963V193.008H279.07H277.488V196.963ZM56.0039 208.67V218.004H57.5859H59.168V208.67V199.336H57.5859H56.0039V208.67ZM183.832 208.67V218.004H185.414H186.996V208.67V199.336H185.414H183.832V208.67ZM243.217 208.717C243.098 208.836 243 209.55 243 210.305V211.676H250.137H257.273L257.177 210.173L257.08 208.67L250.257 208.585C246.504 208.538 243.336 208.597 243.217 208.717ZM243.211 215.051C243.095 215.167 243 215.879 243 216.633V218.004H251.701H260.402V216.422V214.84H251.912C247.242 214.84 243.327 214.935 243.211 215.051Z" fill="white"/>
<path fill-rule="evenodd" clip-rule="evenodd" d="M154.09 82.9323C147.434 83.6841 140.306 86.0144 134.705 89.2693C121.745 96.801 112.602 109.817 110.098 124.3C109.233 129.297 109.239 137.157 110.111 141.997C111.398 149.147 114.445 156.464 118.574 162.316C119.74 163.97 122.335 166.965 124.34 168.974C132.701 177.347 142.971 182.166 155.355 183.524C160.914 184.134 169.191 183.258 174.979 181.446C178.343 180.392 184.56 177.448 187.471 175.53C197.979 168.603 205.82 157.667 208.833 145.739C210.103 140.711 210.531 136.424 210.306 130.992C209.987 123.314 208.547 117.748 205.025 110.584C195.694 91.6056 175.303 80.5361 154.09 82.9323ZM155.039 106.904V108.762L153.426 108.976C150.783 109.327 147.048 110.653 145.03 111.958C142.827 113.382 141.436 114.956 140.236 117.387C139.44 118.999 139.377 119.417 139.377 123.082C139.377 126.761 139.438 127.161 140.252 128.817C141.422 131.2 143.719 133.273 146.889 134.81C149.323 135.99 150.588 136.436 154.011 137.315L155.355 137.661V141.604C155.355 143.772 155.317 145.547 155.27 145.547C155.223 145.547 154.146 145.259 152.876 144.907C150.536 144.259 146.457 142.361 144.218 140.88C143.5 140.405 142.88 140.187 142.726 140.355C142.581 140.513 141.23 142.494 139.726 144.756L136.99 148.869L137.867 149.586C140.493 151.733 147.617 154.491 152.745 155.346L155.039 155.729V159.023V162.316H158.52H162V158.994V155.672H162.85C163.317 155.672 164.634 155.442 165.777 155.162C174.114 153.118 178.765 146.911 177.537 139.472C176.856 135.346 175.341 133.058 171.726 130.696C170.159 129.673 166.039 128.097 162.079 127.008C161.792 126.929 161.684 125.9 161.684 123.25C161.684 120.243 161.766 119.602 162.151 119.602C162.939 119.602 166.781 121.149 168.808 122.282L170.726 123.355L173.068 119.501C174.356 117.381 175.596 115.351 175.824 114.991C176.211 114.376 176.092 114.252 173.93 113.015C171.045 111.364 167.099 109.909 164.213 109.433L162 109.067V107.057V105.047H158.52H155.039V106.904ZM152.829 119.523C151.503 120.188 150.849 121.329 151.078 122.577C151.302 123.803 151.785 124.335 153.299 125.024C155.365 125.964 155.355 125.976 155.355 122.291C155.355 119.056 155.337 118.969 154.644 118.969C154.252 118.969 153.435 119.219 152.829 119.523ZM161.684 142.408V145.914L162.712 145.692C164.382 145.332 165.366 144.689 165.782 143.684C166.243 142.572 165.985 141.069 165.214 140.371C164.639 139.851 162.57 138.902 162.01 138.902C161.805 138.902 161.684 140.209 161.684 142.408ZM41.7656 225.914V228.129H162H282.234V225.914V223.699H162H41.7656V225.914Z" fill="#212121"/>
</svg>
