<svg xmlns="http://www.w3.org/2000/svg" width="1024" height="1024" viewBox="0 0 1024 1024" version="1.1"><path d="M 599.877 208.517 C 581.192 217.453, 572.974 219.430, 557.500 218.712 C 548.657 218.302, 542.475 217.350, 534 215.095 C 527.675 213.412, 516.627 210.481, 509.449 208.581 C 478.312 200.341, 452.530 201.696, 423.341 213.108 C 414.178 216.691, 412.673 217.617, 411.285 220.529 C 409.975 223.275, 409.910 224.370, 410.914 226.792 C 411.583 228.407, 425.931 242.952, 442.799 259.114 C 459.667 275.276, 477.363 292.236, 482.123 296.803 C 491.803 306.089, 496.229 313.238, 497.880 322.254 C 499.166 329.280, 500.188 331.286, 503.782 333.845 C 508.237 337.017, 513.117 337.484, 518.220 335.227 C 523.133 333.054, 525.307 329.582, 526.503 322 C 526.893 319.525, 528.790 314.473, 530.717 310.774 C 533.797 304.865, 537.635 300.804, 562.361 277.297 C 605.897 235.907, 611.689 230.089, 617.007 222.395 C 623.450 213.076, 624.127 211.207, 622.478 207.286 C 621.099 204.006, 618.379 201.999, 615.316 202.001 C 614.317 202.001, 607.370 204.933, 599.877 208.517 M 508.500 357.208 C 505.484 358.937, 504.067 361.192, 504.032 364.316 C 503.962 370.513, 509.416 374.313, 515.038 371.984 C 521.700 369.225, 521.860 360.649, 515.316 357.163 C 512.614 355.724, 511.069 355.734, 508.500 357.208 M 508.500 390.208 C 503.372 393.148, 502.400 399.491, 506.455 403.545 C 511.511 408.602, 520.037 404.974, 519.968 397.795 C 519.933 394.125, 518.577 391.900, 515.316 390.163 C 512.614 388.724, 511.069 388.734, 508.500 390.208 M 490.677 424 C 477.592 426.758, 471.621 428.846, 460.076 434.702 C 427.118 451.418, 404.319 482.422, 398.471 518.477 C 396.224 532.334, 396.471 537.155, 399.580 540.076 L 402.161 542.500 510.330 542.779 C 569.824 542.932, 619.524 542.808, 620.775 542.504 C 622.027 542.199, 623.939 541.061, 625.025 539.975 C 627.499 537.501, 627.670 529.322, 625.506 517.028 C 619.360 482.104, 596.365 451.157, 564.415 434.812 C 553.421 429.188, 546.160 426.682, 533.216 424.044 C 520.304 421.413, 503.039 421.395, 490.677 424 M 5.676 716.658 C 5.304 717.029, 5 727.997, 5 741.030 L 5 764.726 11.295 765.231 C 14.758 765.509, 18.969 766.450, 20.654 767.321 C 26.304 770.243, 26.500 771.779, 26.500 813.045 C 26.500 847.533, 26.353 850.814, 24.698 853.339 C 22.480 856.723, 19.275 858.067, 11.500 858.876 L 5.500 859.500 5.232 883.760 L 4.964 908.021 49.732 907.760 L 94.500 907.500 94.500 883.500 L 94.500 859.500 87.500 858.939 C 79.750 858.317, 76.677 857.059, 74.773 853.727 C 73.171 850.925, 72.267 802.429, 73.835 803.398 C 74.381 803.735, 89.783 827.409, 108.061 856.006 L 141.295 908 180.147 908 L 219 908 219.056 842.250 C 219.098 794.006, 219.431 775.593, 220.306 773.094 C 221.966 768.357, 225.605 765.999, 232.326 765.306 L 238.035 764.717 237.767 740.608 L 237.500 716.500 195.750 716.239 L 154 715.978 154 740.489 L 154 765 158.250 765.002 C 163.628 765.004, 169.125 767.715, 170.769 771.177 C 171.703 773.145, 171.968 779.568, 171.770 795.418 L 171.500 816.982 139.439 766.741 L 107.378 716.500 56.865 716.241 C 29.083 716.098, 6.047 716.286, 5.676 716.658 M 722 740.500 L 722 765 725.250 765.022 C 727.038 765.034, 730.383 765.899, 732.684 766.943 C 740.040 770.283, 740 770.035, 740 811.990 C 740 847.126, 739.894 849.286, 737.997 853.006 C 735.504 857.893, 733.485 859, 727.066 859 L 722 859 722 883.500 L 722 908 776.518 908 L 831.036 908 830.768 883.750 L 830.500 859.500 825 858.969 C 818.704 858.361, 815.591 856.908, 813.773 853.727 C 812.785 851.998, 812.437 836.343, 812.217 783.750 L 811.933 716 766.967 716 L 722 716 722 740.500 M 316.500 760.474 C 299.578 763.172, 288.092 767.263, 276.631 774.673 C 263.635 783.075, 255.272 793.944, 249.652 809.739 C 246.604 818.303, 246.535 818.893, 246.580 836 C 246.623 852.422, 246.795 853.993, 249.376 861.500 C 253.097 872.323, 259.592 882.430, 267.811 890.183 C 284.209 905.652, 307.114 913.004, 338.881 912.996 C 368.063 912.988, 388.701 907.410, 405.524 894.982 C 426.645 879.379, 436.709 850.533, 431.485 820.574 C 425.684 787.310, 401.525 766.402, 362.004 760.445 C 350.508 758.711, 327.458 758.726, 316.500 760.474 M 441 788.871 L 441 812.742 445.823 813.382 C 450.672 814.025, 454.350 816.751, 456.778 821.500 C 457.341 822.600, 464.345 840.640, 472.344 861.590 C 480.343 882.539, 487.637 901.552, 488.553 903.840 L 490.217 908 524.021 908 L 557.825 908 560.765 900.250 C 562.383 895.987, 565.860 886.751, 568.494 879.724 C 571.127 872.697, 573.420 867.087, 573.590 867.256 C 573.760 867.426, 577.120 875.875, 581.058 886.033 C 584.996 896.190, 588.634 905.288, 589.144 906.250 C 589.999 907.866, 592.751 908, 624.951 908 L 659.832 908 664.383 896.250 C 666.887 889.788, 674.531 869.958, 681.371 852.185 C 688.211 834.412, 694.629 818.962, 695.634 817.852 C 697.684 815.586, 703.275 813, 706.122 813 C 707.907 813, 708 811.813, 708 789 L 708 765 674.982 765 L 641.964 765 642.232 788.687 L 642.500 812.374 645.745 813.214 C 647.529 813.676, 649.678 815.105, 650.519 816.389 C 651.933 818.547, 651.778 819.619, 648.460 830.612 C 640.159 858.116, 638.780 862.093, 637.676 861.725 C 636.401 861.300, 625.073 822.948, 625.029 818.905 C 624.993 815.658, 627.829 813, 631.329 813 L 634 813 634 789 L 634 765 590 765 L 546 765 546 788.889 L 546 812.777 549.546 813.443 C 556.117 814.675, 556.071 816.264, 548.767 840.194 C 544.721 853.452, 541.781 861.500, 540.984 861.500 C 539.680 861.500, 528.004 822.653, 528.001 818.307 C 528 815.739, 531.469 813, 534.723 813 L 537 813 537 789 L 537 765 489 765 L 441 765 441 788.871 M 836 788.860 L 836 812.720 841.411 813.279 C 848.044 813.963, 851.369 816.035, 854.429 821.392 C 855.720 823.651, 869.010 849.075, 883.961 877.890 C 903.790 916.103, 910.996 930.881, 910.589 932.503 C 909.656 936.218, 902.211 946.602, 898.390 949.516 C 893.944 952.907, 888.303 954.260, 883.298 953.135 L 879.500 952.282 882.381 951.116 C 890.793 947.711, 894.944 941.409, 894.972 932 C 894.996 924.245, 893.416 919.466, 889.337 914.951 C 884.329 909.408, 880.467 907.314, 872.786 905.976 C 841.797 900.580, 822.155 929.620, 837.328 958.400 C 842.414 968.046, 854.468 976.038, 868.500 979.068 C 877.322 980.972, 895.912 980.452, 905.355 978.037 C 924.870 973.046, 938.207 960.298, 949.058 936.263 C 966.355 897.951, 1003.299 820.304, 1005.224 818.213 C 1008.129 815.059, 1012.965 813, 1017.468 813 L 1021 813 1021 789 L 1021 765 985 765 L 949 765 949 789 L 949 813 951.953 813 C 956.281 813, 959.964 815.007, 960.649 817.739 C 961.080 819.453, 959.033 825.094, 953.456 837.567 C 949.169 847.155, 945.359 855, 944.990 855 C 944.316 855, 929.880 824.457, 928.572 820.267 C 927.541 816.961, 931.838 813, 936.455 813 L 940 813 940 789 L 940 765 888 765 L 836 765 836 788.860 M 330 798.752 C 325.783 800.858, 322.507 806.898, 320.911 815.507 C 320.241 819.118, 319.961 828.853, 320.206 840 C 320.575 856.815, 320.835 859.038, 323.056 864.409 C 326.578 872.922, 329.148 874.500, 339.493 874.500 C 347.004 874.500, 348.111 874.250, 350.555 872 C 356.180 866.824, 359 855.019, 359 836.651 C 359 815.734, 355.815 803.699, 349.102 799.251 C 344.782 796.389, 335.230 796.139, 330 798.752" stroke="none" fill="#f1edf8" fill-rule="evenodd"/><path d="M 322.500 53.150 C 318.166 55.530, 318 56.474, 318 78.737 C 318 100.076, 318.002 100.093, 320.455 102.545 C 322.836 104.927, 323.345 105, 337.455 105 L 352 105 352.001 130.250 C 352.002 157.785, 353.032 172.367, 356.009 187 C 361.259 212.801, 373.178 237.244, 388.721 254.084 C 391.899 257.528, 409.181 273.734, 427.124 290.096 C 462.147 322.035, 463.811 323.983, 464.790 334.166 C 465.272 339.185, 463.280 346.215, 460.087 350.759 C 459.214 352.001, 444.671 365.652, 427.769 381.095 C 393.050 412.814, 385.254 420.781, 377.595 432.366 C 358.572 461.139, 352 488.940, 352 540.645 L 352 561 338.450 561 C 324.394 561, 319.977 562.012, 318.621 565.545 C 317.811 567.656, 317.811 607.344, 318.621 609.455 C 320.439 614.193, 312.209 614, 512.815 614 L 700.730 614 703.365 611.927 L 706 609.855 706 588.038 C 706 559.607, 707.411 561.612, 687.091 561.178 L 672 560.856 672 541.573 C 672 490.136, 664.851 460.031, 645.901 431.675 C 638.355 420.384, 630.880 412.781, 596.024 380.938 C 567.897 355.243, 564.597 351.897, 561.809 346.247 C 559.070 340.698, 558.785 339.310, 559.275 333.904 C 559.662 329.635, 560.687 326.421, 562.703 323.157 C 564.503 320.242, 577.253 307.839, 596.787 290 C 636.975 253.298, 644.629 244.627, 654.945 224.109 C 667.445 199.249, 672 173.406, 672 127.355 L 672 105 686.365 105 C 699.384 105, 700.977 104.806, 703.365 102.927 L 706 100.855 706 79.038 C 706 59.048, 705.840 57.024, 704.088 54.861 L 702.177 52.500 513.338 52.276 C 377.675 52.115, 323.937 52.361, 322.500 53.150 M 369.287 138.250 C 369.708 166.918, 370.064 172.878, 371.872 181.500 C 375.927 200.832, 381.409 214.685, 390.564 228.729 C 398.053 240.218, 403.629 245.888, 441 280.009 C 474.672 310.754, 477.493 314.003, 480.458 325.460 C 482.403 332.978, 482.405 338.023, 480.467 345.465 C 478.551 352.822, 474.735 359.914, 470.083 364.765 C 468.113 366.820, 452.547 381.150, 435.493 396.609 C 397.864 430.718, 392.736 436.457, 383.761 454.500 C 378.339 465.400, 374.653 476.294, 371.901 489.557 C 370.176 497.872, 369.749 504.536, 369.297 530.250 L 368.756 561 511.990 561 L 655.224 561 654.748 532.750 C 654.365 510.007, 653.866 502.258, 652.189 493 C 647.439 466.785, 638.365 447.088, 622.869 429.356 C 619.916 425.977, 602.629 409.658, 584.453 393.093 C 560.642 371.391, 550.523 361.510, 548.246 357.737 C 542.310 347.904, 540.533 335.419, 543.576 324.932 C 546.835 313.699, 549.641 310.541, 586.639 276.473 C 624.397 241.706, 630.912 234.488, 639.414 218 C 645.171 206.837, 649.623 193.255, 652.189 179.030 C 653.905 169.516, 654.353 162.036, 654.748 136.250 L 655.226 105 512.013 105 L 368.800 105 369.287 138.250 M 13.500 922.850 C 9.474 924.159, 5.410 927.242, 2.985 930.827 C 1.014 933.740, 0.500 935.757, 0.500 940.573 C 0.500 948.262, 3.780 953.747, 10.250 956.879 L 14.631 959 425.704 959 L 836.777 959 834.412 953.250 C 831.602 946.417, 831.161 933.072, 833.529 926.500 C 834.321 924.300, 834.977 922.388, 834.985 922.250 C 835.020 921.662, 15.312 922.261, 13.500 922.850 M 895.326 927.750 C 895.974 931.758, 895.898 934.805, 895.074 937.807 C 893.720 942.740, 887.872 949.743, 884.372 950.622 C 883.067 950.949, 882 951.618, 882 952.108 C 882 953.541, 891.841 953.134, 894.852 951.577 C 898.842 949.513, 905.477 941.965, 908.439 936.120 L 911.003 931.060 908.802 926.530 L 906.601 922 900.499 922 L 894.396 922 895.326 927.750 M 953.829 926.692 C 947.442 941.244, 943.691 948.653, 940.530 952.960 C 938.588 955.604, 937 958.045, 937 958.384 C 937 958.723, 953.283 959, 973.184 959 C 1008.014 959, 1009.533 958.921, 1013.750 956.879 C 1020.220 953.747, 1023.500 948.262, 1023.500 940.573 C 1023.500 933.548, 1021.025 928.949, 1015.078 924.922 C 1011.536 922.524, 1011.222 922.497, 983.719 922.192 L 955.939 921.884 953.829 926.692" stroke="none" fill="#212121" fill-rule="evenodd"/></svg>